<?xml version="1.0" encoding="UTF-8" standalone="no"?>
<svg
   width="461.44mm"
   height="652.79999mm"
   viewBox="0 0 461.44 652.8"
   version="1.1"
   id="svg45"
   sodipodi:docname="Final product.svg"
   inkscape:version="1.2.2 (732a01da63, 2022-12-09)"
   xmlns:inkscape="http://www.inkscape.org/namespaces/inkscape"
   xmlns:sodipodi="http://sodipodi.sourceforge.net/DTD/sodipodi-0.dtd"
   xmlns="http://www.w3.org/2000/svg"
   xmlns:svg="http://www.w3.org/2000/svg"
   xmlns:rdf="http://www.w3.org/1999/02/22-rdf-syntax-ns#"
   xmlns:cc="http://creativecommons.org/ns#"
   xmlns:dc="http://purl.org/dc/elements/1.1/">
  <g
     id="g5275"
     transform="translate(-41.539785,10.962681)"
     style="stroke-width:0.2;stroke-dasharray:none">
    <g
       id="g938">
      <path
         d="m 285.81032,102.31188 h 6 c 0.099,0 0.18,-0.081 0.18,-0.18 v -2.82 c 0,-0.18 -0.18,0 0,0 h 5.64 c 0.18,0 0,-0.18 0,0 v 2.82 c 0,0.099 0.081,0.18 0.18,0.18 h 6 c 0.099,0 0.18,-0.081 0.18,-0.18 v -2.82 c 0,-0.18 -0.18,0 0,0 h 5.64 c 0.18,0 0,-0.18 0,0 v 2.82 c 0,0.099 0.081,0.18 0.18,0.18 h 6 c 0.099,0 0.18,-0.081 0.18,-0.18 v -2.82 c 0,-0.18 -0.18,0 0,0 h 5.64 c 0.18,0 0,-0.18 0,0 v 2.82 c 0,0.099 0.081,0.18 0.18,0.18 h 6 c 0.099,0 0.18,-0.081 0.18,-0.18 v -2.82 c 0,-0.18 -0.18,0 0,0 h 5.64 c 0.18,0 0,-0.18 0,0 v 2.82 c 0,0.099 0.081,0.18 0.18,0.18 h 6 c 0.099,0 0.18,-0.081 0.18,-0.18 v -2.82 c 0,-0.18 -0.18,0 0,0 h 5.64 c 0.18,0 0,-0.18 0,0 v 2.82 c 0,0.099 0.081,0.18 0.18,0.18 h 6 c 0.099,0 0.18,-0.081 0.18,-0.18 v -2.82 c 0,-0.18 -0.18,0 0,0 h 5.64 c 0.18,0 0,-0.18 0,0 v 2.82 c 0,0.099 0.081,0.18 0.18,0.18 h 6 c 0.099,0 0.18,-0.081 0.18,-0.18 v -2.82 c 0,-0.18 -0.18,0 0,0 h 5.64 c 0.18,0 0,-0.18 0,0 v 2.82 c 0,0.099 0.081,0.18 0.18,0.18 h 6 c 0.099,0 0.18,-0.081 0.18,-0.18 v -2.82 c 0,-0.18 -0.18,0 0,0 h 5.64 c 0.18,0 0,-0.18 0,0 v 2.82 c 0,0.099 0.081,0.18 0.18,0.18 h 6 c 0.099,0 0.18,-0.081 0.18,-0.18 v -2.82 c 0,-0.18 -0.18,0 0,0 h 5.64 c 0.18,0 0,-0.18 0,0 v 2.82 c 0,0.099 0.081,0.18 0.18,0.18 h 6 c 0.099,0 0.18,-0.081 0.18,-0.18 v -2.82 c 0,-0.18 -0.18,0 0,0 h 5.64 c 0.18,0 0,-0.18 0,0 v 2.82 c 0,0.099 0.081,0.18 0.18,0.18 h 6 c 0.099,0 0.18,-0.081 0.18,-0.18 v -2.82 c 0,-0.18 -0.18,0 0,0 h 5.64 c 0.18,0 0,-0.18 0,0 v 2.82 c 0,0.099 0.081,0.18 0.18,0.18 h 6 c 0.099,0 0.18,-0.081 0.18,-0.18 v -2.82 c 0,-0.18 -0.18,0 0,0 h 5.64 c 0.18,0 0,-0.18 0,0 v 2.82 c 0,0.099 0.081,0.18 0.18,0.18 h 6 3 c 0.099,0 0.18,-0.081 0.18,-0.18 v -6.5 c 0,-0.099 -0.081,-0.18 -0.18,-0.18 h -2.82 c -0.18,0 0,0.18 0,0 v -5.64 c 0,-0.18 -0.18,0 0,0 h 2.82 c 0.099,0 0.18,-0.081 0.18,-0.18 v -6 c 0,-0.099 -0.081,-0.18 -0.18,-0.18 h -2.82 c -0.18,0 0,0.18 0,0 v -5.64 c 0,-0.18 -0.18,0 0,0 h 2.82 c 0.099,0 0.18,-0.081 0.18,-0.18 v -6 c 0,-0.099 -0.081,-0.18 -0.18,-0.18 h -2.82 c -0.18,0 0,0.18 0,0 v -5.64 c 0,-0.18 -0.18,0 0,0 h 2.82 c 0.099,0 0.18,-0.081 0.18,-0.18 v -6 c 0,-0.099 -0.081,-0.18 -0.18,-0.18 h -2.82 c -0.18,0 0,0.18 0,0 v -5.64 c 0,-0.18 -0.18,0 0,0 h 2.82 c 0.099,0 0.18,-0.081 0.18,-0.18 v -6 c 0,-0.099 -0.081,-0.18 -0.18,-0.18 h -2.82 c -0.18,0 0,0.18 0,0 v -5.64 c 0,-0.18 -0.18,0 0,0 h 2.82 c 0.099,0 0.18,-0.081 0.18,-0.18 v -6 c 0,-0.099 -0.081,-0.18 -0.18,-0.18 h -2.82 c -0.18,0 0,0.18 0,0 v -5.64 c 0,-0.18 -0.18,0 0,0 h 2.82 c 0.099,0 0.18,-0.081 0.18,-0.18 v -6 c 0,-0.099 -0.081,-0.18 -0.18,-0.18 h -2.82 c -0.18,0 0,0.18 0,0 v -5.64 c 0,-0.18 -0.18,0 0,0 h 2.82 c 0.099,0 0.18,-0.081 0.18,-0.18 v -6 c 0,-0.099 -0.081,-0.18 -0.18,-0.18 h -2.82 c -0.18,0 0,0.18 0,0 v -5.64 c 0,-0.18 -0.18,0 0,0 h 2.82 c 0.099,0 0.18,-0.081 0.18,-0.18 v -6.5 c 0,-0.099 -0.081,-0.18 -0.18,-0.18 h -3 -150 -3 c -0.099,0 -0.18,0.081 -0.18,0.18 v 6.5 c 0,0.099 0.081,0.18 0.18,0.18 h 2.82 c 0.18,0 0,-0.18 0,0 v 5.64 c 0,0.18 0.18,0 0,0 h -2.82 c -0.099,0 -0.18,0.081 -0.18,0.18 v 6 c 0,0.099 0.081,0.18 0.18,0.18 h 2.82 c 0.18,0 0,-0.18 0,0 v 5.64 c 0,0.18 0.18,0 0,0 h -2.82 c -0.099,0 -0.18,0.081 -0.18,0.18 v 6 c 0,0.099 0.081,0.18 0.18,0.18 h 2.82 c 0.18,0 0,-0.18 0,0 v 5.64 c 0,0.18 0.18,0 0,0 h -2.82 c -0.099,0 -0.18,0.081 -0.18,0.18 v 6 c 0,0.099 0.081,0.18 0.18,0.18 h 2.82 c 0.18,0 0,-0.18 0,0 v 5.64 c 0,0.18 0.18,0 0,0 h -2.82 c -0.099,0 -0.18,0.081 -0.18,0.18 v 6 c 0,0.099 0.081,0.18 0.18,0.18 h 2.82 c 0.18,0 0,-0.18 0,0 v 5.64 c 0,0.18 0.18,0 0,0 h -2.82 c -0.099,0 -0.18,0.081 -0.18,0.18 v 6 c 0,0.099 0.081,0.18 0.18,0.18 h 2.82 c 0.18,0 0,-0.18 0,0 v 5.64 c 0,0.18 0.18,0 0,0 h -2.82 c -0.099,0 -0.18,0.081 -0.18,0.18 v 6 c 0,0.099 0.081,0.18 0.18,0.18 h 2.82 c 0.18,0 0,-0.18 0,0 v 5.64 c 0,0.18 0.18,0 0,0 h -2.82 c -0.099,0 -0.18,0.081 -0.18,0.18 v 6 c 0,0.099 0.081,0.18 0.18,0.18 h 2.82 c 0.18,0 0,-0.18 0,0 v 5.64 c 0,0.18 0.18,0 0,0 h -2.82 c -0.099,0 -0.18,0.081 -0.18,0.18 v 6.5 c 0,0.099 0.081,0.18 0.18,0.18 h 3"
         stroke="#000000"
         stroke-width="0.36"
         id="path18"
         style="fill:none;stroke-width:0.2;stroke-linecap:round;stroke-linejoin:round;stroke-dasharray:none" />
      <path
         d="m 379.20093,37.203593 v 3.19111 c 0,0.20368 0.18964,0 0,0 h -2.7812 c -0.18963,0 0,0.20368 0,0 v -6.38222 c 0,-0.20368 -0.18963,0 0,0 h 2.7812 c 0.18964,0 0,-0.20368 0,0 z"
         stroke="#0000ff"
         stroke-width="0.393064"
         id="path2008-0"
         style="fill:none;stroke:#000000;stroke-width:0.2;stroke-linecap:round;stroke-linejoin:round;stroke-dasharray:none;stroke-opacity:1" />
      <path
         d="m 379.20093,49.189229 v 3.19111 c 0,0.20368 0.18964,0 0,0 h -2.7812 c -0.18963,0 0,0.20368 0,0 v -6.38222 c 0,-0.20368 -0.18963,0 0,0 h 2.7812 c 0.18964,0 0,-0.20368 0,0 z"
         stroke="#0000ff"
         stroke-width="0.393064"
         id="path4914"
         style="fill:none;stroke:#000000;stroke-width:0.2;stroke-linecap:round;stroke-linejoin:round;stroke-dasharray:none;stroke-opacity:1" />
      <path
         d="m 379.20093,61.058269 v 3.19111 c 0,0.20368 0.18964,0 0,0 h -2.7812 c -0.18963,0 0,0.20368 0,0 v -6.38222 c 0,-0.20368 -0.18963,0 0,0 h 2.7812 c 0.18964,0 0,-0.20368 0,0 z"
         stroke="#0000ff"
         stroke-width="0.393064"
         id="path4916"
         style="fill:none;stroke:#000000;stroke-width:0.2;stroke-linecap:round;stroke-linejoin:round;stroke-dasharray:none;stroke-opacity:1" />
      <path
         d="m 379.24784,73.161044 v 3.19111 c 0,0.20368 0.18964,0 0,0 h -2.7812 c -0.18963,0 0,0.20368 0,0 v -6.38222 c 0,-0.20368 -0.18963,0 0,0 h 2.7812 c 0.18964,0 0,-0.20368 0,0 z"
         stroke="#0000ff"
         stroke-width="0.393064"
         id="path4918"
         style="fill:none;stroke:#000000;stroke-width:0.2;stroke-linecap:round;stroke-linejoin:round;stroke-dasharray:none;stroke-opacity:1" />
      <path
         d="m 379.20093,85.121394 v 3.191092 c 0,0.20368 0.18964,0 0,0 h -2.7812 c -0.18963,0 0,0.20368 0,0 v -6.382199 c 0,-0.20368 -0.18963,0 0,0 h 2.7812 c 0.18964,0 0,-0.20368 0,0 z"
         stroke="#0000ff"
         stroke-width="0.393064"
         id="path4920"
         style="fill:none;stroke:#000000;stroke-width:0.2;stroke-linecap:round;stroke-linejoin:round;stroke-dasharray:none;stroke-opacity:1" />
      <path
         d="m 379.20093,25.141598 v 3.19111 c 0,0.20368 0.18964,0 0,0 h -2.7812 c -0.18963,0 0,0.20368 0,0 v -6.38222 c 0,-0.20368 -0.18963,0 0,0 h 2.7812 c 0.18964,0 0,-0.20368 0,0 z"
         stroke="#0000ff"
         stroke-width="0.393064"
         id="path4922"
         style="fill:none;stroke:#000000;stroke-width:0.2;stroke-linecap:round;stroke-linejoin:round;stroke-dasharray:none;stroke-opacity:1" />
      <path
         d="m 379.20138,13.147914 v 3.19111 c 0,0.20368 0.18964,0 0,0 h -2.7812 c -0.18963,0 0,0.20368 0,0 V 9.9568028 c 0,-0.20368 -0.18963,0 0,0 h 2.7812 c 0.18964,0 0,-0.20368 0,0 z"
         stroke="#0000ff"
         stroke-width="0.393064"
         id="path4924"
         style="fill:none;stroke:#000000;stroke-width:0.2;stroke-linecap:round;stroke-linejoin:round;stroke-dasharray:none;stroke-opacity:1" />
    </g>
  </g>
  <g
     id="g3139"
     transform="translate(321.09988,-197.18558)"
     style="stroke-width:0.2;stroke-dasharray:none">
    <g
       id="p-5"
       style="fill:none;stroke-width:0.2;stroke-linecap:round;stroke-linejoin:round;stroke-dasharray:none">
      <path
         d="m 171.26,630.94 h 7 c 0.099,0 0.18,-0.081 0.18,-0.18 v -2.82 c 0,-0.18 -0.18,0 0,0 h 5.64 c 0.18,0 0,-0.18 0,0 v 2.82 c 0,0.099 0.081,0.18 0.18,0.18 h 6 c 0.099,0 0.18,-0.081 0.18,-0.18 v -2.82 c 0,-0.18 -0.18,0 0,0 h 5.64 c 0.18,0 0,-0.18 0,0 v 2.82 c 0,0.099 0.081,0.18 0.18,0.18 h 6 c 0.099,0 0.18,-0.081 0.18,-0.18 v -2.82 c 0,-0.18 -0.18,0 0,0 h 5.64 c 0.18,0 0,-0.18 0,0 v 2.82 c 0,0.099 0.081,0.18 0.18,0.18 h 6 c 0.099,0 0.18,-0.081 0.18,-0.18 v -2.82 c 0,-0.18 -0.18,0 0,0 h 5.64 c 0.18,0 0,-0.18 0,0 v 2.82 c 0,0.099 0.081,0.18 0.18,0.18 h 6 c 0.099,0 0.18,-0.081 0.18,-0.18 v -2.82 c 0,-0.18 -0.18,0 0,0 h 5.64 c 0.18,0 0,-0.18 0,0 v 2.82 c 0,0.099 0.081,0.18 0.18,0.18 h 6 c 0.099,0 0.18,-0.081 0.18,-0.18 v -2.82 c 0,-0.18 -0.18,0 0,0 h 5.64 c 0.18,0 0,-0.18 0,0 v 2.82 c 0,0.099 0.081,0.18 0.18,0.18 h 6 c 0.099,0 0.18,-0.081 0.18,-0.18 v -2.82 c 0,-0.18 -0.18,0 0,0 h 5.64 c 0.18,0 0,-0.18 0,0 v 2.82 c 0,0.099 0.081,0.18 0.18,0.18 h 6 c 0.099,0 0.18,-0.081 0.18,-0.18 v -2.82 c 0,-0.18 -0.18,0 0,0 h 5.64 c 0.18,0 0,-0.18 0,0 v 2.82 c 0,0.099 0.081,0.18 0.18,0.18 h 6 c 0.099,0 0.18,-0.081 0.18,-0.18 v -2.82 c 0,-0.18 -0.18,0 0,0 h 5.64 c 0.18,0 0,-0.18 0,0 v 2.82 c 0,0.099 0.081,0.18 0.18,0.18 h 6 c 0.099,0 0.18,-0.081 0.18,-0.18 v -2.82 c 0,-0.18 -0.18,0 0,0 h 5.64 c 0.18,0 0,-0.18 0,0 v 2.82 c 0,0.099 0.081,0.18 0.18,0.18 h 6 c 0.099,0 0.18,-0.081 0.18,-0.18 v -2.82 c 0,-0.18 -0.18,0 0,0 h 5.64 c 0.18,0 0,-0.18 0,0 v 2.82 c 0,0.099 0.081,0.18 0.18,0.18 h 6 c 0.099,0 0.18,-0.081 0.18,-0.18 v -2.82 c 0,-0.18 -0.18,0 0,0 h 5.64 c 0.18,0 0,-0.18 0,0 v 2.82 c 0,0.099 0.081,0.18 0.18,0.18 h 6 c 0.099,0 0.18,-0.081 0.18,-0.18 v -2.82 c 0,-0.18 -0.18,0 0,0 h 5.64 c 0.18,0 0,-0.18 0,0 v 2.82 c 0,0.099 0.081,0.18 0.18,0.18 h 6 c 0.099,0 0.18,-0.081 0.18,-0.18 v -2.82 c 0,-0.18 -0.18,0 0,0 h 5.64 c 0.18,0 0,-0.18 0,0 v 2.82 c 0,0.099 0.081,0.18 0.18,0.18 h 6 c 0.099,0 0.18,-0.081 0.18,-0.18 v -2.82 c 0,-0.18 -0.18,0 0,0 h 5.64 c 0.18,0 0,-0.18 0,0 v 2.82 c 0,0.099 0.081,0.18 0.18,0.18 h 6 c 0.099,0 0.18,-0.081 0.18,-0.18 v -2.82 c 0,-0.18 -0.18,0 0,0 h 5.64 c 0.18,0 0,-0.18 0,0 v 2.82 c 0,0.099 0.081,0.18 0.18,0.18 h 7 c 0.099,0 0.18,-0.081 0.18,-0.18 v -6.32 c 0,-0.18 -0.18,0 0,0 h 2.82 c 0.099,0 0.18,-0.081 0.18,-0.18 v -6 c 0,-0.099 -0.081,-0.18 -0.18,-0.18 h -2.82 c -0.18,0 0,0.18 0,0 v -5.64 c 0,-0.18 -0.18,0 0,0 h 2.82 c 0.099,0 0.18,-0.081 0.18,-0.18 v -6 c 0,-0.099 -0.081,-0.18 -0.18,-0.18 h -2.82 c -0.18,0 0,0.18 0,0 v -5.64 c 0,-0.18 -0.18,0 0,0 h 2.82 c 0.099,0 0.18,-0.081 0.18,-0.18 v -6 c 0,-0.099 -0.081,-0.18 -0.18,-0.18 h -2.82 c -0.18,0 0,0.18 0,0 v -5.64 c 0,-0.18 -0.18,0 0,0 h 2.82 c 0.099,0 0.18,-0.081 0.18,-0.18 v -6 c 0,-0.099 -0.081,-0.18 -0.18,-0.18 h -2.82 c -0.18,0 0,0.18 0,0 v -5.64 c 0,-0.18 -0.18,0 0,0 h 2.82 c 0.099,0 0.18,-0.081 0.18,-0.18 v -6 c 0,-0.099 -0.081,-0.18 -0.18,-0.18 h -2.82 c -0.18,0 0,0.18 0,0 v -5.64 c 0,-0.18 -0.18,0 0,0 h 2.82 c 0.099,0 0.18,-0.081 0.18,-0.18 v -6 c 0,-0.099 -0.081,-0.18 -0.18,-0.18 h -2.82 c -0.18,0 0,0.18 0,0 v -5.64 c 0,-0.18 -0.18,0 0,0 h 2.82 c 0.099,0 0.18,-0.081 0.18,-0.18 v -6 c 0,-0.099 -0.081,-0.18 -0.18,-0.18 h -2.82 c -0.18,0 0,0.18 0,0 v -5.64 c 0,-0.18 -0.18,0 0,0 h 2.82 c 0.099,0 0.18,-0.081 0.18,-0.18 v -6 c 0,-0.099 -0.081,-0.18 -0.18,-0.18 h -2.82 c -0.18,0 0,0.18 0,0 v -6.32 c 0,-0.099 -0.081,-0.18 -0.18,-0.18 H 180.956 c -0.232,0 -0.459,-0.061 -0.66,-0.177 -0.201,-0.116 -0.367,-0.282 -0.483,-0.483 -0.116,-0.201 -0.177,-0.428 -0.177,-0.66 0,-1.014 -0.267,-2.011 -0.774,-2.889 -0.507,-0.878 -1.237,-1.608 -2.115,-2.115 -0.878,-0.507 -1.875,-0.774 -2.889,-0.774 -1.014,0 -2.011,0.267 -2.889,0.774 -0.878,0.507 -1.608,1.237 -2.115,2.115 -0.507,0.878 -0.774,1.875 -0.774,2.889 v 1.5 c 0,0.099 0.081,0.18 0.18,0.18 h 3 c 0.032,0 0.063,-0.008 0.09,-0.024 0.027,-0.016 0.05,-0.039 0.066,-0.066 0.016,-0.027 0.024,-0.058 0.024,-0.09 0,-0.032 -0.008,-0.063 -0.024,-0.09 -0.27,-0.468 -0.4,-1.004 -0.375,-1.544 0.026,-0.54 0.206,-1.061 0.52,-1.502 0.314,-0.44 0.747,-0.781 1.249,-0.982 0.502,-0.201 1.051,-0.253 1.582,-0.151 0.531,0.102 1.021,0.355 1.412,0.728 0.391,0.373 0.667,0.851 0.795,1.376 0.127,0.526 0.101,1.076 -0.076,1.587 -0.177,0.511 -0.497,0.96 -0.922,1.295 -0.425,0.334 -0.937,0.539 -1.475,0.59 -0.538,0.052 -1.08,-0.053 -1.56,-0.3 -0.481,-0.248 -0.88,-0.629 -1.15,-1.097 -0.032,-0.056 -0.092,-0.09 -0.156,-0.09 -0.099,0 -0.18,0.081 -0.18,0.18 v 6.32 c 0,0.18 0.18,0 0,0 h -2.82 c -0.099,0 -0.18,0.081 -0.18,0.18 v 6 c 0,0.099 0.081,0.18 0.18,0.18 h 2.82 c 0.18,0 0,-0.18 0,0 v 5.64 c 0,0.18 0.18,0 0,0 h -2.82 c -0.099,0 -0.18,0.081 -0.18,0.18 v 6 c 0,0.099 0.081,0.18 0.18,0.18 h 2.82 c 0.18,0 0,-0.18 0,0 v 5.64 c 0,0.18 0.18,0 0,0 h -2.82 c -0.099,0 -0.18,0.081 -0.18,0.18 v 6 c 0,0.099 0.081,0.18 0.18,0.18 h 2.82 c 0.18,0 0,-0.18 0,0 v 5.64 c 0,0.18 0.18,0 0,0 h -2.82 c -0.099,0 -0.18,0.081 -0.18,0.18 v 6 c 0,0.099 0.081,0.18 0.18,0.18 h 2.82 c 0.18,0 0,-0.18 0,0 v 5.64 c 0,0.18 0.18,0 0,0 h -2.82 c -0.099,0 -0.18,0.081 -0.18,0.18 v 6 c 0,0.099 0.081,0.18 0.18,0.18 h 2.82 c 0.18,0 0,-0.18 0,0 v 5.64 c 0,0.18 0.18,0 0,0 h -2.82 c -0.099,0 -0.18,0.081 -0.18,0.18 v 6 c 0,0.099 0.081,0.18 0.18,0.18 h 2.82 c 0.18,0 0,-0.18 0,0 v 5.64 c 0,0.18 0.18,0 0,0 h -2.82 c -0.099,0 -0.18,0.081 -0.18,0.18 v 6 c 0,0.099 0.081,0.18 0.18,0.18 h 2.82 c 0.18,0 0,-0.18 0,0 v 5.64 c 0,0.18 0.18,0 0,0 h -2.82 c -0.099,0 -0.18,0.081 -0.18,0.18 v 6 c 0,0.099 0.081,0.18 0.18,0.18 h 2.82 c 0.18,0 0,-0.18 0,0 v 6.32 c 0,0.099 0.081,0.18 0.18,0.18"
         stroke="#000000"
         stroke-width="0.36"
         id="path33"
         style="stroke-width:0.2;stroke-dasharray:none" />
      <path
         d="m 173.858,524.76 h 1.119 c 0.18,0 0,-0.18 0,0 v 2.64 c 0,0.18 0.18,0 0,0 h -2.238 c -0.18,0 0,0.18 0,0 v -2.64 c 0,-0.18 -0.18,0 0,0 z"
         stroke="rgb(0,0,255)"
         stroke-width="0.36"
         id="path35"
         style="stroke:#000000;stroke-width:0.2;stroke-dasharray:none;stroke-opacity:1" />
    </g>
    <path
       d="m 368.79585,527.55351 c -0.18,0 0,0.17999 0,0 v -2.82001 c 0,-0.099 -0.081,-0.17999 -0.18,-0.17999 h -6 c -0.099,0 -0.18,0.081 -0.18,0.17999 v 2.82001 c 0,0.17999 0.18,0 0,0 h -5.64 c -0.18,0 0,0.17999 0,0 v -2.82001 c 0,-0.099 -0.081,-0.17999 -0.18,-0.17999 h -6 c -0.099,0 -0.18,0.081 -0.18,0.17999 v 2.82001 c 0,0.17999 0.18,0 0,0 h -5.64 c -0.18,0 0,0.17999 0,0 v -2.82001 c 0,-0.099 -0.081,-0.17999 -0.18,-0.17999 h -6 c -0.099,0 -0.18,0.081 -0.18,0.17999 v 2.82001 c 0,0.17999 0.18,0 0,0 h -5.64 c -0.18,0 0,0.17999 0,0 v -2.82001 c 0,-0.099 -0.081,-0.17999 -0.18,-0.17999 h -6 c -0.099,0 -0.18,0.081 -0.18,0.17999 v 2.82001 c 0,0.17999 0.18,0 0,0 h -5.64 c -0.18,0 0,0.17999 0,0 v -2.82001 c 0,-0.099 -0.081,-0.17999 -0.18,-0.17999 h -6 c -0.099,0 -0.18,0.081 -0.18,0.17999 v 2.82001 c 0,0.17999 0.18,0 0,0 h -5.64 c -0.18,0 0,0.17999 0,0 v -2.82001 c 0,-0.099 -0.081,-0.17999 -0.18,-0.17999 h -6 c -0.099,0 -0.18,0.081 -0.18,0.17999 v 2.82001 c 0,0.17999 0.18,0 0,0 h -5.64 c -0.18,0 0,0.17999 0,0 v -2.82001 c 0,-0.099 -0.081,-0.17999 -0.18,-0.17999 h -6 c -0.099,0 -0.18,0.081 -0.18,0.17999 v 2.82001 c 0,0.17999 0.18,0 0,0 h -5.64 c -0.18,0 0,0.17999 0,0 v -2.82001 c 0,-0.099 -0.081,-0.17999 -0.18,-0.17999 h -6 c -0.099,0 -0.18,0.081 -0.18,0.17999 v 2.82001 c 0,0.17999 0.18,0 0,0"
       style="fill:none;stroke:#000000;stroke-width:0.2;stroke-linecap:round;stroke-linejoin:round;stroke-dasharray:none"
       id="path8791-3" />
    <rect
       style="fill:none;stroke:#000000;stroke-width:0.2;stroke-dasharray:none;stroke-opacity:1"
       id="rect11021"
       width="61.383331"
       height="39.6875"
       x="302.68332"
       y="569.64789"
       ry="0.0010205569" />
  </g>
  <defs
     id="defs49">
    <rect
       x="355.31915"
       y="1098.5816"
       width="209.92908"
       height="48.93617"
       id="rect4120" />
    <rect
       x="1074.4681"
       y="1536.8794"
       width="78.014184"
       height="34.042553"
       id="rect4114" />
    <rect
       x="548.22695"
       y="1762.4113"
       width="56.028369"
       height="20.567376"
       id="rect4025" />
    <rect
       x="241.13475"
       y="1624.8227"
       width="137.58865"
       height="73.049645"
       id="rect4019" />
    <rect
       x="1419.4054"
       y="1512.5588"
       width="172.09698"
       height="44.208399"
       id="rect1739" />
    <rect
       x="483.92409"
       y="1632.553"
       width="57.628806"
       height="22.893635"
       id="rect1733" />
    <rect
       x="176.8336"
       y="1506.2433"
       width="131.83576"
       height="29.998557"
       id="rect1727" />
    <rect
       x="297.61726"
       y="1001.7939"
       width="92.363981"
       height="33.945735"
       id="rect1671" />
  </defs>
  <sodipodi:namedview
     id="namedview47"
     pagecolor="#ffffff"
     bordercolor="#000000"
     borderopacity="0.25"
     inkscape:showpageshadow="2"
     inkscape:pageopacity="0.0"
     inkscape:pagecheckerboard="0"
     inkscape:deskcolor="#d1d1d1"
     inkscape:document-units="mm"
     showgrid="false"
     inkscape:zoom="0.49851028"
     inkscape:cx="978.91662"
     inkscape:cy="556.65853"
     inkscape:window-width="1920"
     inkscape:window-height="991"
     inkscape:window-x="-9"
     inkscape:window-y="-9"
     inkscape:window-maximized="1"
     inkscape:current-layer="svg45" />
  <!--
UniversalBox - Box with various options for different styles and lids

Created with Boxes.py (https://festi.info/boxes.py)
Creation date: 2023-04-14 07:54:41
Command line (remove spaces between dashes): boxes UniversalBox - -top_edge=i - -bottom_edge=F - -x=150.0 - -y=200.0 - -outside=0 - -burn=0.18
Url: http://www.festi.info/boxes.py/UniversalBox?FingerJoint_angle=90.0&FingerJoint_style=rectangular&FingerJoint_surroundingspaces=2.0&FingerJoint_bottom_lip=0.0&FingerJoint_edge_width=1.0&FingerJoint_extra_length=0.0&FingerJoint_finger=2.0&FingerJoint_play=0.0&FingerJoint_space=2.0&FingerJoint_width=1.0&Stackable_angle=60&Stackable_bottom_stabilizers=0.0&Stackable_height=2.0&Stackable_holedistance=1.0&Stackable_width=4.0&Hinge_grip_percentage=0&Hinge_outset=0&Hinge_outset=1&Hinge_pinwidth=0.5&Hinge_style=outset&Hinge_axle=2.0&Hinge_grip_length=0&Hinge_hingestrength=1&CabinetHinge_bore=3.2&CabinetHinge_eyes_per_hinge=5&CabinetHinge_hinges=2&CabinetHinge_style=inside&CabinetHinge_eye=1.5&CabinetHinge_play=0.05&CabinetHinge_spacing=2.0&SlideOnLid_angle=90.0&SlideOnLid_hole_width=0&SlideOnLid_second_pin=0&SlideOnLid_second_pin=1&SlideOnLid_spring=both&SlideOnLid_style=rectangular&SlideOnLid_surroundingspaces=2.0&SlideOnLid_bottom_lip=0.0&SlideOnLid_edge_width=1.0&SlideOnLid_extra_length=0.0&SlideOnLid_finger=3.0&SlideOnLid_play=0.05&SlideOnLid_space=2.0&SlideOnLid_width=1.0&Click_angle=5.0&Click_bottom_radius=0.1&Click_depth=3.0&RoundedTriangleEdge_height=50.0&RoundedTriangleEdge_r_hole=2.0&RoundedTriangleEdge_radius=30.0&RoundedTriangleEdge_outset=1.0&Mounting_d_head=6.5&Mounting_d_shaft=3.0&Mounting_margin=0.125&Mounting_num=2&Mounting_side=back&Mounting_style=straight+edge%2C+within&HandleEdge_height=20.0&HandleEdge_hole_height=75.0&HandleEdge_hole_width=40%3A40&HandleEdge_on_sides=0&HandleEdge_on_sides=1&HandleEdge_radius=10.0&HandleEdge_outset=1.0&Flex_stretch=1.05&Flex_connection=1.0&Flex_distance=0.5&Flex_width=5.0&Lid_handle=none&Lid_style=none&Lid_handle_height=8.0&Lid_height=4.0&Lid_play=0.1&top_edge=i&bottom_edge=F&x=150.0&y=200.0&h=100.0&outside=0&vertical_edges=finger+joints&thickness=3.0&format=svg&tabs=0.0&qr_code=0&debug=0&labels=0&labels=1&reference=100&inner_corners=loop&burn=0.18&language=en&render=2
Url short: http://www.festi.info/boxes.py/UniversalBox?top_edge=i&bottom_edge=F&x=150.0&y=200.0&outside=0&burn=0.18
SettingsUrl: http://www.festi.info/boxes.py/UniversalBox?FingerJoint_angle=90.0&FingerJoint_style=rectangular&FingerJoint_surroundingspaces=2.0&FingerJoint_bottom_lip=0.0&FingerJoint_edge_width=1.0&FingerJoint_extra_length=0.0&FingerJoint_finger=2.0&FingerJoint_play=0.0&FingerJoint_space=2.0&FingerJoint_width=1.0&Stackable_angle=60&Stackable_bottom_stabilizers=0.0&Stackable_height=2.0&Stackable_holedistance=1.0&Stackable_width=4.0&Hinge_grip_percentage=0&Hinge_outset=0&Hinge_outset=1&Hinge_pinwidth=0.5&Hinge_style=outset&Hinge_axle=2.0&Hinge_grip_length=0&Hinge_hingestrength=1&CabinetHinge_bore=3.2&CabinetHinge_eyes_per_hinge=5&CabinetHinge_hinges=2&CabinetHinge_style=inside&CabinetHinge_eye=1.5&CabinetHinge_play=0.05&CabinetHinge_spacing=2.0&SlideOnLid_angle=90.0&SlideOnLid_hole_width=0&SlideOnLid_second_pin=0&SlideOnLid_second_pin=1&SlideOnLid_spring=both&SlideOnLid_style=rectangular&SlideOnLid_surroundingspaces=2.0&SlideOnLid_bottom_lip=0.0&SlideOnLid_edge_width=1.0&SlideOnLid_extra_length=0.0&SlideOnLid_finger=3.0&SlideOnLid_play=0.05&SlideOnLid_space=2.0&SlideOnLid_width=1.0&Click_angle=5.0&Click_bottom_radius=0.1&Click_depth=3.0&RoundedTriangleEdge_height=50.0&RoundedTriangleEdge_r_hole=2.0&RoundedTriangleEdge_radius=30.0&RoundedTriangleEdge_outset=1.0&Mounting_d_head=6.5&Mounting_d_shaft=3.0&Mounting_margin=0.125&Mounting_num=2&Mounting_side=back&Mounting_style=straight+edge%2C+within&HandleEdge_height=20.0&HandleEdge_hole_height=75.0&HandleEdge_hole_width=40%3A40&HandleEdge_on_sides=0&HandleEdge_on_sides=1&HandleEdge_radius=10.0&HandleEdge_outset=1.0&Flex_stretch=1.05&Flex_connection=1.0&Flex_distance=0.5&Flex_width=5.0&Lid_handle=none&Lid_style=none&Lid_handle_height=8.0&Lid_height=4.0&Lid_play=0.1&top_edge=i&bottom_edge=F&x=150.0&y=200.0&h=100.0&outside=0&vertical_edges=finger+joints&thickness=3.0&format=svg&tabs=0.0&qr_code=0&debug=0&labels=0&labels=1&reference=100&inner_corners=loop&burn=0.18&language=en&render=2
SettingsUrl short: http://www.festi.info/boxes.py/UniversalBox?top_edge=i&bottom_edge=F&x=150.0&y=200.0&outside=0&burn=0.18
-->
  <title
     id="title2">UniversalBox</title>
  <metadata
     id="metadata4">
    <rdf:RDF>
      <cc:Work>
        <dc:title>UniversalBox</dc:title>
        <dc:date>2023-04-14 07:54:41</dc:date>
        <dc:source>http://www.festi.info/boxes.py/UniversalBox?FingerJoint_angle=90.0&amp;FingerJoint_style=rectangular&amp;FingerJoint_surroundingspaces=2.0&amp;FingerJoint_bottom_lip=0.0&amp;FingerJoint_edge_width=1.0&amp;FingerJoint_extra_length=0.0&amp;FingerJoint_finger=2.0&amp;FingerJoint_play=0.0&amp;FingerJoint_space=2.0&amp;FingerJoint_width=1.0&amp;Stackable_angle=60&amp;Stackable_bottom_stabilizers=0.0&amp;Stackable_height=2.0&amp;Stackable_holedistance=1.0&amp;Stackable_width=4.0&amp;Hinge_grip_percentage=0&amp;Hinge_outset=0&amp;Hinge_outset=1&amp;Hinge_pinwidth=0.5&amp;Hinge_style=outset&amp;Hinge_axle=2.0&amp;Hinge_grip_length=0&amp;Hinge_hingestrength=1&amp;CabinetHinge_bore=3.2&amp;CabinetHinge_eyes_per_hinge=5&amp;CabinetHinge_hinges=2&amp;CabinetHinge_style=inside&amp;CabinetHinge_eye=1.5&amp;CabinetHinge_play=0.05&amp;CabinetHinge_spacing=2.0&amp;SlideOnLid_angle=90.0&amp;SlideOnLid_hole_width=0&amp;SlideOnLid_second_pin=0&amp;SlideOnLid_second_pin=1&amp;SlideOnLid_spring=both&amp;SlideOnLid_style=rectangular&amp;SlideOnLid_surroundingspaces=2.0&amp;SlideOnLid_bottom_lip=0.0&amp;SlideOnLid_edge_width=1.0&amp;SlideOnLid_extra_length=0.0&amp;SlideOnLid_finger=3.0&amp;SlideOnLid_play=0.05&amp;SlideOnLid_space=2.0&amp;SlideOnLid_width=1.0&amp;Click_angle=5.0&amp;Click_bottom_radius=0.1&amp;Click_depth=3.0&amp;RoundedTriangleEdge_height=50.0&amp;RoundedTriangleEdge_r_hole=2.0&amp;RoundedTriangleEdge_radius=30.0&amp;RoundedTriangleEdge_outset=1.0&amp;Mounting_d_head=6.5&amp;Mounting_d_shaft=3.0&amp;Mounting_margin=0.125&amp;Mounting_num=2&amp;Mounting_side=back&amp;Mounting_style=straight+edge%2C+within&amp;HandleEdge_height=20.0&amp;HandleEdge_hole_height=75.0&amp;HandleEdge_hole_width=40%3A40&amp;HandleEdge_on_sides=0&amp;HandleEdge_on_sides=1&amp;HandleEdge_radius=10.0&amp;HandleEdge_outset=1.0&amp;Flex_stretch=1.05&amp;Flex_connection=1.0&amp;Flex_distance=0.5&amp;Flex_width=5.0&amp;Lid_handle=none&amp;Lid_style=none&amp;Lid_handle_height=8.0&amp;Lid_height=4.0&amp;Lid_play=0.1&amp;top_edge=i&amp;bottom_edge=F&amp;x=150.0&amp;y=200.0&amp;h=100.0&amp;outside=0&amp;vertical_edges=finger+joints&amp;thickness=3.0&amp;format=svg&amp;tabs=0.0&amp;qr_code=0&amp;debug=0&amp;labels=0&amp;labels=1&amp;reference=100&amp;inner_corners=loop&amp;burn=0.18&amp;language=en&amp;render=2</dc:source>
        <dc:source>http://www.festi.info/boxes.py/UniversalBox?top_edge=i&amp;bottom_edge=F&amp;x=150.0&amp;y=200.0&amp;outside=0&amp;burn=0.18</dc:source>
        <dc:description>Box with various options for different styles and lids

Created with Boxes.py (https://festi.info/boxes.py)
Command line: boxes UniversalBox --FingerJoint_angle=90.0 --FingerJoint_style=rectangular --FingerJoint_surroundingspaces=2.0 --FingerJoint_bottom_lip=0.0 --FingerJoint_edge_width=1.0 --FingerJoint_extra_length=0.0 --FingerJoint_finger=2.0 --FingerJoint_play=0.0 --FingerJoint_space=2.0 --FingerJoint_width=1.0 --Stackable_angle=60 --Stackable_bottom_stabilizers=0.0 --Stackable_height=2.0 --Stackable_holedistance=1.0 --Stackable_width=4.0 --Hinge_grip_percentage=0 --Hinge_outset=0 --Hinge_outset=1 --Hinge_pinwidth=0.5 --Hinge_style=outset --Hinge_axle=2.0 --Hinge_grip_length=0 --Hinge_hingestrength=1 --CabinetHinge_bore=3.2 --CabinetHinge_eyes_per_hinge=5 --CabinetHinge_hinges=2 --CabinetHinge_style=inside --CabinetHinge_eye=1.5 --CabinetHinge_play=0.05 --CabinetHinge_spacing=2.0 --SlideOnLid_angle=90.0 --SlideOnLid_hole_width=0 --SlideOnLid_second_pin=0 --SlideOnLid_second_pin=1 --SlideOnLid_spring=both --SlideOnLid_style=rectangular --SlideOnLid_surroundingspaces=2.0 --SlideOnLid_bottom_lip=0.0 --SlideOnLid_edge_width=1.0 --SlideOnLid_extra_length=0.0 --SlideOnLid_finger=3.0 --SlideOnLid_play=0.05 --SlideOnLid_space=2.0 --SlideOnLid_width=1.0 --Click_angle=5.0 --Click_bottom_radius=0.1 --Click_depth=3.0 --RoundedTriangleEdge_height=50.0 --RoundedTriangleEdge_r_hole=2.0 --RoundedTriangleEdge_radius=30.0 --RoundedTriangleEdge_outset=1.0 --Mounting_d_head=6.5 --Mounting_d_shaft=3.0 --Mounting_margin=0.125 --Mounting_num=2 --Mounting_side=back '--Mounting_style=straight edge, within' --HandleEdge_height=20.0 --HandleEdge_hole_height=75.0 --HandleEdge_hole_width=40:40 --HandleEdge_on_sides=0 --HandleEdge_on_sides=1 --HandleEdge_radius=10.0 --HandleEdge_outset=1.0 --Flex_stretch=1.05 --Flex_connection=1.0 --Flex_distance=0.5 --Flex_width=5.0 --Lid_handle=none --Lid_style=none --Lid_handle_height=8.0 --Lid_height=4.0 --Lid_play=0.1 --top_edge=i --bottom_edge=F --x=150.0 --y=200.0 --h=100.0 --outside=0 '--vertical_edges=finger joints' --thickness=3.0 --format=svg --tabs=0.0 --qr_code=0 --debug=0 --labels=0 --labels=1 --reference=100 --inner_corners=loop --burn=0.18
Command line short: boxes UniversalBox --top_edge=i --bottom_edge=F --x=150.0 --y=200.0 --outside=0 --burn=0.18
Url: http://www.festi.info/boxes.py/UniversalBox?FingerJoint_angle=90.0&amp;FingerJoint_style=rectangular&amp;FingerJoint_surroundingspaces=2.0&amp;FingerJoint_bottom_lip=0.0&amp;FingerJoint_edge_width=1.0&amp;FingerJoint_extra_length=0.0&amp;FingerJoint_finger=2.0&amp;FingerJoint_play=0.0&amp;FingerJoint_space=2.0&amp;FingerJoint_width=1.0&amp;Stackable_angle=60&amp;Stackable_bottom_stabilizers=0.0&amp;Stackable_height=2.0&amp;Stackable_holedistance=1.0&amp;Stackable_width=4.0&amp;Hinge_grip_percentage=0&amp;Hinge_outset=0&amp;Hinge_outset=1&amp;Hinge_pinwidth=0.5&amp;Hinge_style=outset&amp;Hinge_axle=2.0&amp;Hinge_grip_length=0&amp;Hinge_hingestrength=1&amp;CabinetHinge_bore=3.2&amp;CabinetHinge_eyes_per_hinge=5&amp;CabinetHinge_hinges=2&amp;CabinetHinge_style=inside&amp;CabinetHinge_eye=1.5&amp;CabinetHinge_play=0.05&amp;CabinetHinge_spacing=2.0&amp;SlideOnLid_angle=90.0&amp;SlideOnLid_hole_width=0&amp;SlideOnLid_second_pin=0&amp;SlideOnLid_second_pin=1&amp;SlideOnLid_spring=both&amp;SlideOnLid_style=rectangular&amp;SlideOnLid_surroundingspaces=2.0&amp;SlideOnLid_bottom_lip=0.0&amp;SlideOnLid_edge_width=1.0&amp;SlideOnLid_extra_length=0.0&amp;SlideOnLid_finger=3.0&amp;SlideOnLid_play=0.05&amp;SlideOnLid_space=2.0&amp;SlideOnLid_width=1.0&amp;Click_angle=5.0&amp;Click_bottom_radius=0.1&amp;Click_depth=3.0&amp;RoundedTriangleEdge_height=50.0&amp;RoundedTriangleEdge_r_hole=2.0&amp;RoundedTriangleEdge_radius=30.0&amp;RoundedTriangleEdge_outset=1.0&amp;Mounting_d_head=6.5&amp;Mounting_d_shaft=3.0&amp;Mounting_margin=0.125&amp;Mounting_num=2&amp;Mounting_side=back&amp;Mounting_style=straight+edge%2C+within&amp;HandleEdge_height=20.0&amp;HandleEdge_hole_height=75.0&amp;HandleEdge_hole_width=40%3A40&amp;HandleEdge_on_sides=0&amp;HandleEdge_on_sides=1&amp;HandleEdge_radius=10.0&amp;HandleEdge_outset=1.0&amp;Flex_stretch=1.05&amp;Flex_connection=1.0&amp;Flex_distance=0.5&amp;Flex_width=5.0&amp;Lid_handle=none&amp;Lid_style=none&amp;Lid_handle_height=8.0&amp;Lid_height=4.0&amp;Lid_play=0.1&amp;top_edge=i&amp;bottom_edge=F&amp;x=150.0&amp;y=200.0&amp;h=100.0&amp;outside=0&amp;vertical_edges=finger+joints&amp;thickness=3.0&amp;format=svg&amp;tabs=0.0&amp;qr_code=0&amp;debug=0&amp;labels=0&amp;labels=1&amp;reference=100&amp;inner_corners=loop&amp;burn=0.18&amp;language=en&amp;render=2
Url short: http://www.festi.info/boxes.py/UniversalBox?top_edge=i&amp;bottom_edge=F&amp;x=150.0&amp;y=200.0&amp;outside=0&amp;burn=0.18
SettingsUrl: http://www.festi.info/boxes.py/UniversalBox?FingerJoint_angle=90.0&amp;FingerJoint_style=rectangular&amp;FingerJoint_surroundingspaces=2.0&amp;FingerJoint_bottom_lip=0.0&amp;FingerJoint_edge_width=1.0&amp;FingerJoint_extra_length=0.0&amp;FingerJoint_finger=2.0&amp;FingerJoint_play=0.0&amp;FingerJoint_space=2.0&amp;FingerJoint_width=1.0&amp;Stackable_angle=60&amp;Stackable_bottom_stabilizers=0.0&amp;Stackable_height=2.0&amp;Stackable_holedistance=1.0&amp;Stackable_width=4.0&amp;Hinge_grip_percentage=0&amp;Hinge_outset=0&amp;Hinge_outset=1&amp;Hinge_pinwidth=0.5&amp;Hinge_style=outset&amp;Hinge_axle=2.0&amp;Hinge_grip_length=0&amp;Hinge_hingestrength=1&amp;CabinetHinge_bore=3.2&amp;CabinetHinge_eyes_per_hinge=5&amp;CabinetHinge_hinges=2&amp;CabinetHinge_style=inside&amp;CabinetHinge_eye=1.5&amp;CabinetHinge_play=0.05&amp;CabinetHinge_spacing=2.0&amp;SlideOnLid_angle=90.0&amp;SlideOnLid_hole_width=0&amp;SlideOnLid_second_pin=0&amp;SlideOnLid_second_pin=1&amp;SlideOnLid_spring=both&amp;SlideOnLid_style=rectangular&amp;SlideOnLid_surroundingspaces=2.0&amp;SlideOnLid_bottom_lip=0.0&amp;SlideOnLid_edge_width=1.0&amp;SlideOnLid_extra_length=0.0&amp;SlideOnLid_finger=3.0&amp;SlideOnLid_play=0.05&amp;SlideOnLid_space=2.0&amp;SlideOnLid_width=1.0&amp;Click_angle=5.0&amp;Click_bottom_radius=0.1&amp;Click_depth=3.0&amp;RoundedTriangleEdge_height=50.0&amp;RoundedTriangleEdge_r_hole=2.0&amp;RoundedTriangleEdge_radius=30.0&amp;RoundedTriangleEdge_outset=1.0&amp;Mounting_d_head=6.5&amp;Mounting_d_shaft=3.0&amp;Mounting_margin=0.125&amp;Mounting_num=2&amp;Mounting_side=back&amp;Mounting_style=straight+edge%2C+within&amp;HandleEdge_height=20.0&amp;HandleEdge_hole_height=75.0&amp;HandleEdge_hole_width=40%3A40&amp;HandleEdge_on_sides=0&amp;HandleEdge_on_sides=1&amp;HandleEdge_radius=10.0&amp;HandleEdge_outset=1.0&amp;Flex_stretch=1.05&amp;Flex_connection=1.0&amp;Flex_distance=0.5&amp;Flex_width=5.0&amp;Lid_handle=none&amp;Lid_style=none&amp;Lid_handle_height=8.0&amp;Lid_height=4.0&amp;Lid_play=0.1&amp;top_edge=i&amp;bottom_edge=F&amp;x=150.0&amp;y=200.0&amp;h=100.0&amp;outside=0&amp;vertical_edges=finger+joints&amp;thickness=3.0&amp;format=svg&amp;tabs=0.0&amp;qr_code=0&amp;debug=0&amp;labels=0&amp;labels=1&amp;reference=100&amp;inner_corners=loop&amp;burn=0.18&amp;language=en&amp;render=2
SettingsUrl short: http://www.festi.info/boxes.py/UniversalBox?top_edge=i&amp;bottom_edge=F&amp;x=150.0&amp;y=200.0&amp;outside=0&amp;burn=0.18
</dc:description>
      </cc:Work>
    </rdf:RDF>
  </metadata>
  <g
     id="p-0"
     style="fill:none;stroke-linecap:round;stroke-linejoin:round"
     transform="translate(0,5.7412848)">
    <path
       d="m 10.4,642.8 h 100 v -10 h -100 z"
       stroke="#000000"
       stroke-width="0.36"
       id="path6" />
    <text
       transform="translate(60.4,633.8)"
       style="font-style:normal;font-weight:normal;font-family:sans-serif;fill:#ff0000"
       font-size="8px"
       text-anchor="middle"
       dominant-baseline="hanging"
       id="text8">100mm, burn:0.18mm</text>
  </g>
  <g
     id="p-3"
     style="fill:none;stroke-width:0.2;stroke-linecap:round;stroke-linejoin:round;stroke-dasharray:none"
     transform="rotate(180,212.00729,289.61783)">
    <path
       d="m 13.4,418.22 h 5.82 c 0.18,0 0,-0.18 0,0 v 2.82 c 0,0.099 0.081,0.18 0.18,0.18 h 6 c 0.099,0 0.18,-0.081 0.18,-0.18 v -2.82 c 0,-0.18 -0.18,0 0,0 h 5.64 c 0.18,0 0,-0.18 0,0 v 2.82 c 0,0.099 0.081,0.18 0.18,0.18 h 6 c 0.099,0 0.18,-0.081 0.18,-0.18 v -2.82 c 0,-0.18 -0.18,0 0,0 h 5.64 c 0.18,0 0,-0.18 0,0 v 2.82 c 0,0.099 0.081,0.18 0.18,0.18 h 6 c 0.099,0 0.18,-0.081 0.18,-0.18 v -2.82 c 0,-0.18 -0.18,0 0,0 h 5.64 c 0.18,0 0,-0.18 0,0 v 2.82 c 0,0.099 0.081,0.18 0.18,0.18 h 6 c 0.099,0 0.18,-0.081 0.18,-0.18 v -2.82 c 0,-0.18 -0.18,0 0,0 h 5.64 c 0.18,0 0,-0.18 0,0 v 2.82 c 0,0.099 0.081,0.18 0.18,0.18 h 6 c 0.099,0 0.18,-0.081 0.18,-0.18 v -2.82 c 0,-0.18 -0.18,0 0,0 h 5.64 c 0.18,0 0,-0.18 0,0 v 2.82 c 0,0.099 0.081,0.18 0.18,0.18 h 6 c 0.099,0 0.18,-0.081 0.18,-0.18 v -2.82 c 0,-0.18 -0.18,0 0,0 h 5.64 c 0.18,0 0,-0.18 0,0 v 2.82 c 0,0.099 0.081,0.18 0.18,0.18 h 6 c 0.099,0 0.18,-0.081 0.18,-0.18 v -2.82 c 0,-0.18 -0.18,0 0,0 h 5.64 c 0.18,0 0,-0.18 0,0 v 2.82 c 0,0.099 0.081,0.18 0.18,0.18 h 6 c 0.099,0 0.18,-0.081 0.18,-0.18 v -2.82 c 0,-0.18 -0.18,0 0,0 h 5.64 c 0.18,0 0,-0.18 0,0 v 2.82 c 0,0.099 0.081,0.18 0.18,0.18 h 6 c 0.099,0 0.18,-0.081 0.18,-0.18 v -2.82 c 0,-0.18 -0.18,0 0,0 h 5.64 c 0.18,0 0,-0.18 0,0 v 2.82 c 0,0.099 0.081,0.18 0.18,0.18 h 6 c 0.099,0 0.18,-0.081 0.18,-0.18 v -2.82 c 0,-0.18 -0.18,0 0,0 h 5.64 c 0.18,0 0,-0.18 0,0 v 2.82 c 0,0.099 0.081,0.18 0.18,0.18 h 6 c 0.099,0 0.18,-0.081 0.18,-0.18 v -2.82 c 0,-0.18 -0.18,0 0,0 h 5.64 c 0.18,0 0,-0.18 0,0 v 2.82 c 0,0.099 0.081,0.18 0.18,0.18 h 6 c 0.099,0 0.18,-0.081 0.18,-0.18 v -2.82 c 0,-0.18 -0.18,0 0,0 h 5.82 c 0.099,0 0.18,-0.081 0.18,-0.18 v -6.82 c 0,-0.18 -0.18,0 0,0 h 2.82 c 0.099,0 0.18,-0.081 0.18,-0.18 v -6 c 0,-0.099 -0.081,-0.18 -0.18,-0.18 h -2.82 c -0.18,0 0,0.18 0,0 v -5.64 c 0,-0.18 -0.18,0 0,0 h 2.82 c 0.099,0 0.18,-0.081 0.18,-0.18 v -6 c 0,-0.099 -0.081,-0.18 -0.18,-0.18 h -2.82 c -0.18,0 0,0.18 0,0 v -5.64 c 0,-0.18 -0.18,0 0,0 h 2.82 c 0.099,0 0.18,-0.081 0.18,-0.18 v -6 c 0,-0.099 -0.081,-0.18 -0.18,-0.18 h -2.82 c -0.18,0 0,0.18 0,0 v -5.64 c 0,-0.18 -0.18,0 0,0 h 2.82 c 0.099,0 0.18,-0.081 0.18,-0.18 v -6 c 0,-0.099 -0.081,-0.18 -0.18,-0.18 h -2.82 c -0.18,0 0,0.18 0,0 v -5.64 c 0,-0.18 -0.18,0 0,0 h 2.82 c 0.099,0 0.18,-0.081 0.18,-0.18 v -6 c 0,-0.099 -0.081,-0.18 -0.18,-0.18 h -2.82 c -0.18,0 0,0.18 0,0 v -5.64 c 0,-0.18 -0.18,0 0,0 h 2.82 c 0.099,0 0.18,-0.081 0.18,-0.18 v -6 c 0,-0.099 -0.081,-0.18 -0.18,-0.18 h -2.82 c -0.18,0 0,0.18 0,0 v -5.64 c 0,-0.18 -0.18,0 0,0 h 2.82 c 0.099,0 0.18,-0.081 0.18,-0.18 v -6 c 0,-0.099 -0.081,-0.18 -0.18,-0.18 h -2.82 c -0.18,0 0,0.18 0,0 v -5.64 c 0,-0.18 -0.18,0 0,0 h 2.82 c 0.099,0 0.18,-0.081 0.18,-0.18 v -6 c 0,-0.099 -0.081,-0.18 -0.18,-0.18 h -2.82 c -0.18,0 0,0.18 0,0 v -5.64 c 0,-0.18 -0.18,0 0,0 h 2.82 c 0.099,0 0.18,-0.081 0.18,-0.18 v -6 c 0,-0.099 -0.081,-0.18 -0.18,-0.18 h -2.82 c -0.18,0 0,0.18 0,0 v -5.64 c 0,-0.18 -0.18,0 0,0 h 2.82 c 0.099,0 0.18,-0.081 0.18,-0.18 v -6 c 0,-0.099 -0.081,-0.18 -0.18,-0.18 h -2.82 c -0.18,0 0,0.18 0,0 v -5.64 c 0,-0.18 -0.18,0 0,0 h 2.82 c 0.099,0 0.18,-0.081 0.18,-0.18 v -6 c 0,-0.099 -0.081,-0.18 -0.18,-0.18 h -2.82 c -0.18,0 0,0.18 0,0 v -5.64 c 0,-0.18 -0.18,0 0,0 h 2.82 c 0.099,0 0.18,-0.081 0.18,-0.18 v -6 c 0,-0.099 -0.081,-0.18 -0.18,-0.18 h -2.82 c -0.18,0 0,0.18 0,0 v -5.64 c 0,-0.18 -0.18,0 0,0 h 2.82 c 0.099,0 0.18,-0.081 0.18,-0.18 v -6 c 0,-0.099 -0.081,-0.18 -0.18,-0.18 h -2.82 c -0.18,0 0,0.18 0,0 v -5.64 c 0,-0.18 -0.18,0 0,0 h 2.82 c 0.099,0 0.18,-0.081 0.18,-0.18 v -6 c 0,-0.099 -0.081,-0.18 -0.18,-0.18 h -2.82 c -0.18,0 0,0.18 0,0 v -5.64 c 0,-0.18 -0.18,0 0,0 h 2.82 c 0.099,0 0.18,-0.081 0.18,-0.18 v -6 c 0,-0.099 -0.081,-0.18 -0.18,-0.18 h -2.82 c -0.18,0 0,0.18 0,0 v -5.64 c 0,-0.18 -0.18,0 0,0 h 2.82 c 0.099,0 0.18,-0.081 0.18,-0.18 v -6 c 0,-0.099 -0.081,-0.18 -0.18,-0.18 h -2.82 c -0.18,0 0,0.18 0,0 v -6.82 c 0,-0.099 -0.081,-0.18 -0.18,-0.18 h -5.82 c -0.18,0 0,0.18 0,0 v -2.82 c 0,-0.099 -0.081,-0.18 -0.18,-0.18 h -6 c -0.099,0 -0.18,0.081 -0.18,0.18 v 2.82 c 0,0.18 0.18,0 0,0 h -5.64 c -0.18,0 0,0.18 0,0 v -2.82 c 0,-0.099 -0.081,-0.18 -0.18,-0.18 h -6 c -0.099,0 -0.18,0.081 -0.18,0.18 v 2.82 c 0,0.18 0.18,0 0,0 h -5.64 c -0.18,0 0,0.18 0,0 v -2.82 c 0,-0.099 -0.081,-0.18 -0.18,-0.18 h -6 c -0.099,0 -0.18,0.081 -0.18,0.18 v 2.82 c 0,0.18 0.18,0 0,0 h -5.64 c -0.18,0 0,0.18 0,0 v -2.82 c 0,-0.099 -0.081,-0.18 -0.18,-0.18 h -6 c -0.099,0 -0.18,0.081 -0.18,0.18 v 2.82 c 0,0.18 0.18,0 0,0 h -5.64 c -0.18,0 0,0.18 0,0 v -2.82 c 0,-0.099 -0.081,-0.18 -0.18,-0.18 h -6 c -0.099,0 -0.18,0.081 -0.18,0.18 v 2.82 c 0,0.18 0.18,0 0,0 h -5.64 c -0.18,0 0,0.18 0,0 v -2.82 c 0,-0.099 -0.081,-0.18 -0.18,-0.18 h -6 c -0.099,0 -0.18,0.081 -0.18,0.18 v 2.82 c 0,0.18 0.18,0 0,0 h -5.64 c -0.18,0 0,0.18 0,0 v -2.82 c 0,-0.099 -0.081,-0.18 -0.18,-0.18 h -6 c -0.099,0 -0.18,0.081 -0.18,0.18 v 2.82 c 0,0.18 0.18,0 0,0 h -5.64 c -0.18,0 0,0.18 0,0 v -2.82 c 0,-0.099 -0.081,-0.18 -0.18,-0.18 h -6 c -0.099,0 -0.18,0.081 -0.18,0.18 v 2.82 c 0,0.18 0.18,0 0,0 h -5.64 c -0.18,0 0,0.18 0,0 v -2.82 c 0,-0.099 -0.081,-0.18 -0.18,-0.18 h -6 c -0.099,0 -0.18,0.081 -0.18,0.18 v 2.82 c 0,0.18 0.18,0 0,0 h -5.64 c -0.18,0 0,0.18 0,0 v -2.82 c 0,-0.099 -0.081,-0.18 -0.18,-0.18 h -6 c -0.099,0 -0.18,0.081 -0.18,0.18 v 2.82 c 0,0.18 0.18,0 0,0 h -5.64 c -0.18,0 0,0.18 0,0 v -2.82 c 0,-0.099 -0.081,-0.18 -0.18,-0.18 h -6 c -0.099,0 -0.18,0.081 -0.18,0.18 v 2.82 c 0,0.18 0.18,0 0,0 h -5.64 c -0.18,0 0,0.18 0,0 v -2.82 c 0,-0.099 -0.081,-0.18 -0.18,-0.18 h -6 c -0.099,0 -0.18,0.081 -0.18,0.18 v 2.82 c 0,0.18 0.18,0 0,0 H 13.4 c -0.099,0 -0.18,0.081 -0.18,0.18 v 6.82 c 0,0.18 0.18,0 0,0 H 10.4 c -0.099,0 -0.18,0.081 -0.18,0.18 v 6 c 0,0.099 0.081,0.18 0.18,0.18 h 2.82 c 0.18,0 0,-0.18 0,0 v 5.64 c 0,0.18 0.18,0 0,0 H 10.4 c -0.099,0 -0.18,0.081 -0.18,0.18 v 6 c 0,0.099 0.081,0.18 0.18,0.18 h 2.82 c 0.18,0 0,-0.18 0,0 v 5.64 c 0,0.18 0.18,0 0,0 H 10.4 c -0.099,0 -0.18,0.081 -0.18,0.18 v 6 c 0,0.099 0.081,0.18 0.18,0.18 h 2.82 c 0.18,0 0,-0.18 0,0 v 5.64 c 0,0.18 0.18,0 0,0 H 10.4 c -0.099,0 -0.18,0.081 -0.18,0.18 v 6 c 0,0.099 0.081,0.18 0.18,0.18 h 2.82 c 0.18,0 0,-0.18 0,0 v 5.64 c 0,0.18 0.18,0 0,0 H 10.4 c -0.099,0 -0.18,0.081 -0.18,0.18 v 6 c 0,0.099 0.081,0.18 0.18,0.18 h 2.82 c 0.18,0 0,-0.18 0,0 v 5.64 c 0,0.18 0.18,0 0,0 H 10.4 c -0.099,0 -0.18,0.081 -0.18,0.18 v 6 c 0,0.099 0.081,0.18 0.18,0.18 h 2.82 c 0.18,0 0,-0.18 0,0 v 5.64 c 0,0.18 0.18,0 0,0 H 10.4 c -0.099,0 -0.18,0.081 -0.18,0.18 v 6 c 0,0.099 0.081,0.18 0.18,0.18 h 2.82 c 0.18,0 0,-0.18 0,0 v 5.64 c 0,0.18 0.18,0 0,0 H 10.4 c -0.099,0 -0.18,0.081 -0.18,0.18 v 6 c 0,0.099 0.081,0.18 0.18,0.18 h 2.82 c 0.18,0 0,-0.18 0,0 v 5.64 c 0,0.18 0.18,0 0,0 H 10.4 c -0.099,0 -0.18,0.081 -0.18,0.18 v 6 c 0,0.099 0.081,0.18 0.18,0.18 h 2.82 c 0.18,0 0,-0.18 0,0 v 5.64 c 0,0.18 0.18,0 0,0 H 10.4 c -0.099,0 -0.18,0.081 -0.18,0.18 v 6 c 0,0.099 0.081,0.18 0.18,0.18 h 2.82 c 0.18,0 0,-0.18 0,0 v 5.64 c 0,0.18 0.18,0 0,0 H 10.4 c -0.099,0 -0.18,0.081 -0.18,0.18 v 6 c 0,0.099 0.081,0.18 0.18,0.18 h 2.82 c 0.18,0 0,-0.18 0,0 v 5.64 c 0,0.18 0.18,0 0,0 H 10.4 c -0.099,0 -0.18,0.081 -0.18,0.18 v 6 c 0,0.099 0.081,0.18 0.18,0.18 h 2.82 c 0.18,0 0,-0.18 0,0 v 5.64 c 0,0.18 0.18,0 0,0 H 10.4 c -0.099,0 -0.18,0.081 -0.18,0.18 v 6 c 0,0.099 0.081,0.18 0.18,0.18 h 2.82 c 0.18,0 0,-0.18 0,0 v 5.64 c 0,0.18 0.18,0 0,0 H 10.4 c -0.099,0 -0.18,0.081 -0.18,0.18 v 6 c 0,0.099 0.081,0.18 0.18,0.18 h 2.82 c 0.18,0 0,-0.18 0,0 v 5.64 c 0,0.18 0.18,0 0,0 H 10.4 c -0.099,0 -0.18,0.081 -0.18,0.18 v 6 c 0,0.099 0.081,0.18 0.18,0.18 h 2.82 c 0.18,0 0,-0.18 0,0 v 5.64 c 0,0.18 0.18,0 0,0 H 10.4 c -0.099,0 -0.18,0.081 -0.18,0.18 v 6 c 0,0.099 0.081,0.18 0.18,0.18 h 2.82 c 0.18,0 0,-0.18 0,0 v 6.82 c 0,0.099 0.081,0.18 0.18,0.18"
       stroke="#000000"
       stroke-width="0.36"
       id="path23"
       sodipodi:nodetypes="csssssssssssssssssssssssssssssssssssssssssssssssssssssssssssssssssssssssssssssssssssssssssssssssssssssssssssssssssssssssssssssssssssssssssssssssssssssssssssssssssssssssssssssssssssssssssssssssssssssssssssssssssssssssssssssssssssssssssssssssssssssssssssssssssssssssssssssssssssssssssssssssssssssssssssssssssssssssssssssssssssssssssssssssssssssssssssssssssssssssssssssssssssssssssssssssssssssssssssssssssssssssssssssssssssssssssssssssssssssssssssssssssssssssc"
       style="stroke-width:0.2;stroke-dasharray:none" />
  </g>
  <g
     id="g7591"
     transform="translate(-261.94311,-47.280544)"
     style="fill:none;stroke-width:0.2;stroke-linecap:round;stroke-linejoin:round;stroke-dasharray:none">
    <g
       id="g2391"
       transform="translate(121.37287,12.526995)"
       style="stroke-width:0.2;stroke-dasharray:none">
      <rect
         style="fill:none;stroke:#000000;stroke-width:0.2039;stroke-linecap:round;stroke-linejoin:round;stroke-dasharray:none;stroke-opacity:1"
         id="rect11015"
         width="58.796101"
         height="46.796101"
         x="193.07774"
         y="451.07303"
         ry="0.00081817235" />
      <rect
         style="fill:none;stroke:#000000;stroke-width:0.2;stroke-linecap:round;stroke-linejoin:round;stroke-dasharray:none;stroke-opacity:1"
         id="rect11017"
         width="15.866818"
         height="6.5668173"
         x="285.08972"
         y="500.24167"
         ry="0.0007310526" />
      <g
         id="p-6"
         style="fill:none;stroke-width:0.2;stroke-linecap:round;stroke-linejoin:round;stroke-dasharray:none"
         transform="translate(0,0.13229167)">
        <path
           d="m 171.26,517.08 h 7 c 0.099,0 0.18,-0.081 0.18,-0.18 v -2.82 c 0,-0.18 -0.18,0 0,0 h 5.64 c 0.18,0 0,-0.18 0,0 v 2.82 c 0,0.099 0.081,0.18 0.18,0.18 h 6 c 0.099,0 0.18,-0.081 0.18,-0.18 v -2.82 c 0,-0.18 -0.18,0 0,0 h 5.64 c 0.18,0 0,-0.18 0,0 v 2.82 c 0,0.099 0.081,0.18 0.18,0.18 h 6 c 0.099,0 0.18,-0.081 0.18,-0.18 v -2.82 c 0,-0.18 -0.18,0 0,0 h 5.64 c 0.18,0 0,-0.18 0,0 v 2.82 c 0,0.099 0.081,0.18 0.18,0.18 h 6 c 0.099,0 0.18,-0.081 0.18,-0.18 v -2.82 c 0,-0.18 -0.18,0 0,0 h 5.64 c 0.18,0 0,-0.18 0,0 v 2.82 c 0,0.099 0.081,0.18 0.18,0.18 h 6 c 0.099,0 0.18,-0.081 0.18,-0.18 v -2.82 c 0,-0.18 -0.18,0 0,0 h 5.64 c 0.18,0 0,-0.18 0,0 v 2.82 c 0,0.099 0.081,0.18 0.18,0.18 h 6 c 0.099,0 0.18,-0.081 0.18,-0.18 v -2.82 c 0,-0.18 -0.18,0 0,0 h 5.64 c 0.18,0 0,-0.18 0,0 v 2.82 c 0,0.099 0.081,0.18 0.18,0.18 h 6 c 0.099,0 0.18,-0.081 0.18,-0.18 v -2.82 c 0,-0.18 -0.18,0 0,0 h 5.64 c 0.18,0 0,-0.18 0,0 v 2.82 c 0,0.099 0.081,0.18 0.18,0.18 h 6 c 0.099,0 0.18,-0.081 0.18,-0.18 v -2.82 c 0,-0.18 -0.18,0 0,0 h 5.64 c 0.18,0 0,-0.18 0,0 v 2.82 c 0,0.099 0.081,0.18 0.18,0.18 h 6 c 0.099,0 0.18,-0.081 0.18,-0.18 v -2.82 c 0,-0.18 -0.18,0 0,0 h 5.64 c 0.18,0 0,-0.18 0,0 v 2.82 c 0,0.099 0.081,0.18 0.18,0.18 h 6 c 0.099,0 0.18,-0.081 0.18,-0.18 v -2.82 c 0,-0.18 -0.18,0 0,0 h 5.64 c 0.18,0 0,-0.18 0,0 v 2.82 c 0,0.099 0.081,0.18 0.18,0.18 h 6 c 0.099,0 0.18,-0.081 0.18,-0.18 v -2.82 c 0,-0.18 -0.18,0 0,0 h 5.64 c 0.18,0 0,-0.18 0,0 v 2.82 c 0,0.099 0.081,0.18 0.18,0.18 h 6 c 0.099,0 0.18,-0.081 0.18,-0.18 v -2.82 c 0,-0.18 -0.18,0 0,0 h 5.64 c 0.18,0 0,-0.18 0,0 v 2.82 c 0,0.099 0.081,0.18 0.18,0.18 h 6 c 0.099,0 0.18,-0.081 0.18,-0.18 v -2.82 c 0,-0.18 -0.18,0 0,0 h 5.64 c 0.18,0 0,-0.18 0,0 v 2.82 c 0,0.099 0.081,0.18 0.18,0.18 h 6 c 0.099,0 0.18,-0.081 0.18,-0.18 v -2.82 c 0,-0.18 -0.18,0 0,0 h 5.64 c 0.18,0 0,-0.18 0,0 v 2.82 c 0,0.099 0.081,0.18 0.18,0.18 h 6 c 0.099,0 0.18,-0.081 0.18,-0.18 v -2.82 c 0,-0.18 -0.18,0 0,0 h 5.64 c 0.18,0 0,-0.18 0,0 v 2.82 c 0,0.099 0.081,0.18 0.18,0.18 h 6 c 0.099,0 0.18,-0.081 0.18,-0.18 v -2.82 c 0,-0.18 -0.18,0 0,0 h 5.64 c 0.18,0 0,-0.18 0,0 v 2.82 c 0,0.099 0.081,0.18 0.18,0.18 h 7 c 0.099,0 0.18,-0.081 0.18,-0.18 v -6.32 c 0,-0.18 -0.18,0 0,0 h 2.82 c 0.099,0 0.18,-0.081 0.18,-0.18 v -6 c 0,-0.099 -0.081,-0.18 -0.18,-0.18 h -2.82 c -0.18,0 0,0.18 0,0 v -5.64 c 0,-0.18 -0.18,0 0,0 h 2.82 c 0.099,0 0.18,-0.081 0.18,-0.18 v -6 c 0,-0.099 -0.081,-0.18 -0.18,-0.18 h -2.82 c -0.18,0 0,0.18 0,0 v -5.64 c 0,-0.18 -0.18,0 0,0 h 2.82 c 0.099,0 0.18,-0.081 0.18,-0.18 v -6 c 0,-0.099 -0.081,-0.18 -0.18,-0.18 h -2.82 c -0.18,0 0,0.18 0,0 v -5.64 c 0,-0.18 -0.18,0 0,0 h 2.82 c 0.099,0 0.18,-0.081 0.18,-0.18 v -6 c 0,-0.099 -0.081,-0.18 -0.18,-0.18 h -2.82 c -0.18,0 0,0.18 0,0 v -5.64 c 0,-0.18 -0.18,0 0,0 h 2.82 c 0.099,0 0.18,-0.081 0.18,-0.18 v -6 c 0,-0.099 -0.081,-0.18 -0.18,-0.18 h -2.82 c -0.18,0 0,0.18 0,0 v -5.64 c 0,-0.18 -0.18,0 0,0 h 2.82 c 0.099,0 0.18,-0.081 0.18,-0.18 v -6 c 0,-0.099 -0.081,-0.18 -0.18,-0.18 h -2.82 c -0.18,0 0,0.18 0,0 v -5.64 c 0,-0.18 -0.18,0 0,0 h 2.82 c 0.099,0 0.18,-0.081 0.18,-0.18 v -6 c 0,-0.099 -0.081,-0.18 -0.18,-0.18 h -2.82 c -0.18,0 0,0.18 0,0 v -5.64 c 0,-0.18 -0.18,0 0,0 h 2.82 c 0.099,0 0.18,-0.081 0.18,-0.18 v -6 c 0,-0.099 -0.081,-0.18 -0.18,-0.18 h -2.82 c -0.18,0 0,0.18 0,0 v -6.32 c 0,-0.099 -0.081,-0.18 -0.18,-0.18 -0.064,0 -0.124,0.034 -0.156,0.09 -0.27,0.468 -0.669,0.849 -1.15,1.097 -0.48,0.247 -1.022,0.352 -1.56,0.3 -0.538,-0.051 -1.05,-0.256 -1.475,-0.59 -0.425,-0.335 -0.745,-0.784 -0.922,-1.295 -0.177,-0.511 -0.203,-1.061 -0.076,-1.587 0.128,-0.525 0.404,-1.003 0.795,-1.376 0.391,-0.373 0.881,-0.626 1.412,-0.728 0.531,-0.102 1.08,-0.05 1.582,0.151 0.502,0.201 0.935,0.542 1.249,0.982 0.314,0.441 0.494,0.962 0.52,1.502 0.025,0.54 -0.105,1.076 -0.375,1.544 -0.016,0.027 -0.024,0.058 -0.024,0.09 0,0.032 0.008,0.063 0.024,0.09 0.016,0.027 0.039,0.05 0.066,0.066 0.027,0.016 0.058,0.024 0.09,0.024 h 3 c 0.099,0 0.18,-0.081 0.18,-0.18 v -1.5 c 0,-1.014 -0.267,-2.011 -0.774,-2.889 -0.507,-0.878 -1.237,-1.608 -2.115,-2.115 -0.878,-0.507 -1.875,-0.774 -2.889,-0.774 -1.014,0 -2.011,0.267 -2.889,0.774 -0.878,0.507 -1.608,1.237 -2.115,2.115 -0.507,0.878 -0.774,1.875 -0.774,2.889 0,0.232 -0.061,0.459 -0.177,0.66 -0.116,0.201 -0.282,0.367 -0.483,0.483 -0.201,0.116 -0.428,0.177 -0.66,0.177 l -97.43273,6e-5 v -3 h -6.34329 l -0.0144,3.00004 h -5.65253 l 0.013,-3.00004 h -6.33267 l 0.0141,3.00004 h -5.65231 l -0.0262,-3.00004 h -6.35764 l 0.0257,2.9999 -5.71483,10e-5 0.0554,-3 h -6.33277 l -0.079,2.99976 -5.6256,2.4e-4 0.0192,-3 h -6.2573 l -0.0969,3 h -5.70169 l 0.0182,-3 h -6.24363 l -0.0205,3 h -5.71775 l 4.2e-4,-3 h -6.25823 l -0.0573,3 h -5.70301 l 0.0156,-3 h -6.30193 l -0.0436,3 -2.49981,-3.7e-4 c -0.099,-1e-5 -0.18,0.0809 -0.18,0.17994 v 6.32 c 0,0.18 0.18,0 0,0 h -2.82 c -0.099,0 -0.18,0.081 -0.18,0.18 v 6 c 0,0.099 0.081,0.18 0.18,0.18 h 2.82 c 0.18,0 0,-0.18 0,0 v 5.64 c 0,0.18 0.18,0 0,0 h -2.82 c -0.099,0 -0.18,0.081 -0.18,0.18 v 6 c 0,0.099 0.081,0.18 0.18,0.18 h 2.82 c 0.18,0 0,-0.18 0,0 v 5.64 c 0,0.18 0.18,0 0,0 h -2.82 c -0.099,0 -0.18,0.081 -0.18,0.18 v 6 c 0,0.099 0.081,0.18 0.18,0.18 h 2.82 c 0.18,0 0,-0.18 0,0 v 5.64 c 0,0.18 0.18,0 0,0 h -2.82 c -0.099,0 -0.18,0.081 -0.18,0.18 v 6 c 0,0.099 0.081,0.18 0.18,0.18 h 2.82 c 0.18,0 0,-0.18 0,0 v 5.64 c 0,0.18 0.18,0 0,0 h -2.82 c -0.099,0 -0.18,0.081 -0.18,0.18 v 6 c 0,0.099 0.081,0.18 0.18,0.18 h 2.82 c 0.18,0 0,-0.18 0,0 v 5.64 c 0,0.18 0.18,0 0,0 h -2.82 c -0.099,0 -0.18,0.081 -0.18,0.18 v 6 c 0,0.099 0.081,0.18 0.18,0.18 h 2.82 c 0.18,0 0,-0.18 0,0 v 5.64 c 0,0.18 0.18,0 0,0 h -2.82 c -0.099,0 -0.18,0.081 -0.18,0.18 v 6 c 0,0.099 0.081,0.18 0.18,0.18 h 2.82 c 0.18,0 0,-0.18 0,0 v 5.64 c 0,0.18 0.18,0 0,0 h -2.82 c -0.099,0 -0.18,0.081 -0.18,0.18 v 6 c 0,0.099 0.081,0.18 0.18,0.18 h 2.82 c 0.18,0 0,-0.18 0,0 v 6.32 c 0,0.099 0.081,0.18 0.18,0.18"
           stroke="#000000"
           stroke-width="0.36"
           id="path40"
           style="stroke-width:0.2;stroke-linejoin:bevel;stroke-dasharray:none;paint-order:stroke fill markers"
           sodipodi:nodetypes="cssssssssssssssssssssssssssssssssssssssssssssssssssssssssssssssssssssssssssssssssssssssssssssssssssssssssssssssssssssssssssssssssssssssssssssssssssssssssssssssssssssssssssssssssssssssssssssssssssssccccscssscccssssssssssssssssccccccccccccccccccccccccccccccccsssssssssssssssssssssssssssssssssssssssssssssssssssssssssssssssssssc" />
        <path
           d="m 368.662,410.9 h 1.119 c 0.18,0 0,-0.18 0,0 v 2.64 c 0,0.18 0.18,0 0,0 h -2.238 c -0.18,0 0,0.18 0,0 v -2.64 c 0,-0.18 -0.18,0 0,0 z"
           stroke="#0000ff"
           stroke-width="0.36"
           id="path42"
           style="stroke:#000000;stroke-width:0.2;stroke-dasharray:none;stroke-opacity:1" />
      </g>
    </g>
    <path
       d="m 385.50173,426.3249 c -0.18,0 0,0.18 0,0 v -2.82 c 0,-0.099 -0.081,-0.18 -0.18,-0.18 h -6 c -0.099,0 -0.18,0.081 -0.18,0.18 v 2.82 c 0,0.18 0.18,0 0,0 h -5.64 c -0.18,0 0,0.18 0,0 v -2.82 c 0,-0.099 -0.081,-0.18 -0.18,-0.18 h -6 c -0.099,0 -0.18,0.081 -0.18,0.18 v 2.82 c 0,0.18 0.18,0 0,0 h -5.64 c -0.18,0 0,0.18 0,0 v -2.82 c 0,-0.099 -0.081,-0.18 -0.18,-0.18 h -6 c -0.099,0 -0.18,0.081 -0.18,0.18 v 2.82 c 0,0.18 0.18,0 0,0 h -5.64 c -0.18,0 0,0.18 0,0 v -2.82 c 0,-0.099 -0.081,-0.18 -0.18,-0.18 h -6 c -0.099,0 -0.18,0.081 -0.18,0.18 v 2.82 c 0,0.18 0.18,0 0,0 h -5.64 c -0.18,0 0,0.18 0,0 v -2.82 c 0,-0.099 -0.081,-0.18 -0.18,-0.18 h -6 c -0.099,0 -0.18,0.081 -0.18,0.18 v 2.82 c 0,0.18 0.18,0 0,0 h -5.64 c -0.18,0 0,0.18 0,0 v -2.82 c 0,-0.099 -0.081,-0.18 -0.18,-0.18 h -6 c -0.099,0 -0.18,0.081 -0.18,0.18 v 2.82 c 0,0.18 0.18,10e-5 0,10e-5 l -5.64,-10e-5 c -0.18,0 0,0.18 0,0 v -2.82 c 0,-0.099 -0.081,-0.18 -0.18,-0.18 h -6 c -0.099,0 -0.18,0.081 -0.18,0.18 v 2.82 c 0,0.18 0.18,0 0,0 h -5.64 c -0.18,0 0,0.18 0,0 v -2.82 c 0,-0.099 -0.081,-0.18 -0.18,-0.18 h -6 c -0.099,0 -0.18,0.081 -0.18,0.18 v 2.82 c 0,0.18 0.18,0 0,0"
       style="stroke:#000000;stroke-width:0.2;stroke-dasharray:none"
       id="path8791"
       sodipodi:nodetypes="cssssssssssssssssssssssssssssssssssssssssssssssssssssssssssssssc" />
  </g>
  <g
     id="g1832"
     transform="translate(-2.5064584,0.41774306)">
    <g
       id="g7601"
       style="fill:none;stroke-width:0.2;stroke-linecap:round;stroke-linejoin:round;stroke-dasharray:none"
       transform="matrix(-1,0,0,1,400.43083,99.987049)">
      <path
         d="m 171.26,517.08 h 7 c 0.099,0 0.18,-0.081 0.18,-0.18 v -2.82 c 0,-0.18 -0.18,0 0,0 h 5.64 c 0.18,0 0,-0.18 0,0 v 2.82 c 0,0.099 0.081,0.18 0.18,0.18 h 6 c 0.099,0 0.18,-0.081 0.18,-0.18 v -2.82 c 0,-0.18 -0.18,0 0,0 h 5.64 c 0.18,0 0,-0.18 0,0 v 2.82 c 0,0.099 0.081,0.18 0.18,0.18 h 6 c 0.099,0 0.18,-0.081 0.18,-0.18 v -2.82 c 0,-0.18 -0.18,0 0,0 h 5.64 c 0.18,0 0,-0.18 0,0 v 2.82 c 0,0.099 0.081,0.18 0.18,0.18 h 6 c 0.099,0 0.18,-0.081 0.18,-0.18 v -2.82 c 0,-0.18 -0.18,0 0,0 h 5.64 c 0.18,0 0,-0.18 0,0 v 2.82 c 0,0.099 0.081,0.18 0.18,0.18 h 6 c 0.099,0 0.18,-0.081 0.18,-0.18 v -2.82 c 0,-0.18 -0.18,0 0,0 h 5.64 c 0.18,0 0,-0.18 0,0 v 2.82 c 0,0.099 0.081,0.18 0.18,0.18 h 6 c 0.099,0 0.18,-0.081 0.18,-0.18 v -2.82 c 0,-0.18 -0.18,0 0,0 h 5.64 c 0.18,0 0,-0.18 0,0 v 2.82 c 0,0.099 0.081,0.18 0.18,0.18 h 6 c 0.099,0 0.18,-0.081 0.18,-0.18 v -2.82 c 0,-0.18 -0.18,0 0,0 h 5.64 c 0.18,0 0,-0.18 0,0 v 2.82 c 0,0.099 0.081,0.18 0.18,0.18 h 6 c 0.099,0 0.18,-0.081 0.18,-0.18 v -2.82 c 0,-0.18 -0.18,0 0,0 h 5.64 c 0.18,0 0,-0.18 0,0 v 2.82 c 0,0.099 0.081,0.18 0.18,0.18 h 6 c 0.099,0 0.18,-0.081 0.18,-0.18 v -2.82 c 0,-0.18 -0.18,0 0,0 h 5.64 c 0.18,0 0,-0.18 0,0 v 2.82 c 0,0.099 0.081,0.18 0.18,0.18 h 6 c 0.099,0 0.18,-0.081 0.18,-0.18 v -2.82 c 0,-0.18 -0.18,0 0,0 h 5.64 c 0.18,0 0,-0.18 0,0 v 2.82 c 0,0.099 0.081,0.18 0.18,0.18 h 6 c 0.099,0 0.18,-0.081 0.18,-0.18 v -2.82 c 0,-0.18 -0.18,0 0,0 h 5.64 c 0.18,0 0,-0.18 0,0 v 2.82 c 0,0.099 0.081,0.18 0.18,0.18 h 6 c 0.099,0 0.18,-0.081 0.18,-0.18 v -2.82 c 0,-0.18 -0.18,0 0,0 h 5.64 c 0.18,0 0,-0.18 0,0 v 2.82 c 0,0.099 0.081,0.18 0.18,0.18 h 6 c 0.099,0 0.18,-0.081 0.18,-0.18 v -2.82 c 0,-0.18 -0.18,0 0,0 h 5.64 c 0.18,0 0,-0.18 0,0 v 2.82 c 0,0.099 0.081,0.18 0.18,0.18 h 6 c 0.099,0 0.18,-0.081 0.18,-0.18 v -2.82 c 0,-0.18 -0.18,0 0,0 h 5.64 c 0.18,0 0,-0.18 0,0 v 2.82 c 0,0.099 0.081,0.18 0.18,0.18 h 6 c 0.099,0 0.18,-0.081 0.18,-0.18 v -2.82 c 0,-0.18 -0.18,0 0,0 h 5.64 c 0.18,0 0,-0.18 0,0 v 2.82 c 0,0.099 0.081,0.18 0.18,0.18 h 6 c 0.099,0 0.18,-0.081 0.18,-0.18 v -2.82 c 0,-0.18 -0.18,0 0,0 h 5.64 c 0.18,0 0,-0.18 0,0 v 2.82 c 0,0.099 0.081,0.18 0.18,0.18 h 7 c 0.099,0 0.18,-0.081 0.18,-0.18 v -6.32 c 0,-0.18 -0.18,0 0,0 h 2.82 c 0.099,0 0.18,-0.081 0.18,-0.18 v -6 c 0,-0.099 -0.081,-0.18 -0.18,-0.18 h -2.82 c -0.18,0 0,0.18 0,0 v -5.64 c 0,-0.18 -0.18,0 0,0 h 2.82 c 0.099,0 0.18,-0.081 0.18,-0.18 v -6 c 0,-0.099 -0.081,-0.18 -0.18,-0.18 h -2.82 c -0.18,0 0,0.18 0,0 v -5.64 c 0,-0.18 -0.18,0 0,0 h 2.82 c 0.099,0 0.18,-0.081 0.18,-0.18 v -6 c 0,-0.099 -0.081,-0.18 -0.18,-0.18 h -2.82 c -0.18,0 0,0.18 0,0 v -5.64 c 0,-0.18 -0.18,0 0,0 h 2.82 c 0.099,0 0.18,-0.081 0.18,-0.18 v -6 c 0,-0.099 -0.081,-0.18 -0.18,-0.18 h -2.82 c -0.18,0 0,0.18 0,0 v -5.64 c 0,-0.18 -0.18,0 0,0 h 2.82 c 0.099,0 0.18,-0.081 0.18,-0.18 v -6 c 0,-0.099 -0.081,-0.18 -0.18,-0.18 h -2.82 c -0.18,0 0,0.18 0,0 v -5.64 c 0,-0.18 -0.18,0 0,0 h 2.82 c 0.099,0 0.18,-0.081 0.18,-0.18 v -6 c 0,-0.099 -0.081,-0.18 -0.18,-0.18 h -2.82 c -0.18,0 0,0.18 0,0 v -5.64 c 0,-0.18 -0.18,0 0,0 h 2.82 c 0.099,0 0.18,-0.081 0.18,-0.18 v -6 c 0,-0.099 -0.081,-0.18 -0.18,-0.18 h -2.82 c -0.18,0 0,0.18 0,0 v -5.64 c 0,-0.18 -0.18,0 0,0 h 2.82 c 0.099,0 0.18,-0.081 0.18,-0.18 v -6 c 0,-0.099 -0.081,-0.18 -0.18,-0.18 h -2.82 c -0.18,0 0,0.18 0,0 v -6.32 c 0,-0.099 -0.081,-0.18 -0.18,-0.18 -0.064,0 -0.124,0.034 -0.156,0.09 -0.27,0.468 -0.669,0.849 -1.15,1.097 -0.48,0.247 -1.022,0.352 -1.56,0.3 -0.538,-0.051 -1.05,-0.256 -1.475,-0.59 -0.425,-0.335 -0.745,-0.784 -0.922,-1.295 -0.177,-0.511 -0.203,-1.061 -0.076,-1.587 0.128,-0.525 0.404,-1.003 0.795,-1.376 0.391,-0.373 0.881,-0.626 1.412,-0.728 0.531,-0.102 1.08,-0.05 1.582,0.151 0.502,0.201 0.935,0.542 1.249,0.982 0.314,0.441 0.494,0.962 0.52,1.502 0.025,0.54 -0.105,1.076 -0.375,1.544 -0.016,0.027 -0.024,0.058 -0.024,0.09 0,0.032 0.008,0.063 0.024,0.09 0.016,0.027 0.039,0.05 0.066,0.066 0.027,0.016 0.058,0.024 0.09,0.024 h 3 c 0.099,0 0.18,-0.081 0.18,-0.18 v -1.5 c 0,-1.014 -0.267,-2.011 -0.774,-2.889 -0.507,-0.878 -1.237,-1.608 -2.115,-2.115 -0.878,-0.507 -1.875,-0.774 -2.889,-0.774 -1.014,0 -2.011,0.267 -2.889,0.774 -0.878,0.507 -1.608,1.237 -2.115,2.115 -0.507,0.878 -0.774,1.875 -0.774,2.889 0,0.232 -0.061,0.459 -0.177,0.66 -0.116,0.201 -0.282,0.367 -0.483,0.483 -0.201,0.116 -0.428,0.177 -0.66,0.177 l -97.43273,6e-5 v -3 h -6.34329 l -0.0144,3.00004 h -5.65253 l 0.013,-3.00004 h -6.33267 l 0.0141,3.00004 h -5.65231 l -0.0262,-3.00004 h -6.35764 l 0.0257,2.9999 -5.71483,10e-5 0.0554,-3 h -6.33277 l -0.079,2.99976 -5.6256,2.4e-4 0.0192,-3 h -6.2573 l -0.0969,3 h -5.70169 l 0.0182,-3 h -6.24363 l -0.0205,3 h -5.71775 l 4.2e-4,-3 h -6.25823 l -0.0573,3 h -5.70301 l 0.0156,-3 h -6.30193 l -0.0436,3 -2.49981,-3.7e-4 c -0.099,-1e-5 -0.18,0.0809 -0.18,0.17994 v 6.32 c 0,0.18 0.18,0 0,0 h -2.82 c -0.099,0 -0.18,0.081 -0.18,0.18 v 6 c 0,0.099 0.081,0.18 0.18,0.18 h 2.82 c 0.18,0 0,-0.18 0,0 v 5.64 c 0,0.18 0.18,0 0,0 h -2.82 c -0.099,0 -0.18,0.081 -0.18,0.18 v 6 c 0,0.099 0.081,0.18 0.18,0.18 h 2.82 c 0.18,0 0,-0.18 0,0 v 5.64 c 0,0.18 0.18,0 0,0 h -2.82 c -0.099,0 -0.18,0.081 -0.18,0.18 v 6 c 0,0.099 0.081,0.18 0.18,0.18 h 2.82 c 0.18,0 0,-0.18 0,0 v 5.64 c 0,0.18 0.18,0 0,0 h -2.82 c -0.099,0 -0.18,0.081 -0.18,0.18 v 6 c 0,0.099 0.081,0.18 0.18,0.18 h 2.82 c 0.18,0 0,-0.18 0,0 v 5.64 c 0,0.18 0.18,0 0,0 h -2.82 c -0.099,0 -0.18,0.081 -0.18,0.18 v 6 c 0,0.099 0.081,0.18 0.18,0.18 h 2.82 c 0.18,0 0,-0.18 0,0 v 5.64 c 0,0.18 0.18,0 0,0 h -2.82 c -0.099,0 -0.18,0.081 -0.18,0.18 v 6 c 0,0.099 0.081,0.18 0.18,0.18 h 2.82 c 0.18,0 0,-0.18 0,0 v 5.64 c 0,0.18 0.18,0 0,0 h -2.82 c -0.099,0 -0.18,0.081 -0.18,0.18 v 6 c 0,0.099 0.081,0.18 0.18,0.18 h 2.82 c 0.18,0 0,-0.18 0,0 v 5.64 c 0,0.18 0.18,0 0,0 h -2.82 c -0.099,0 -0.18,0.081 -0.18,0.18 v 6 c 0,0.099 0.081,0.18 0.18,0.18 h 2.82 c 0.18,0 0,-0.18 0,0 v 6.32 c 0,0.099 0.081,0.18 0.18,0.18"
         stroke="#000000"
         stroke-width="0.36"
         id="path7597"
         style="stroke-width:0.2;stroke-linejoin:bevel;stroke-dasharray:none;paint-order:stroke fill markers"
         sodipodi:nodetypes="cssssssssssssssssssssssssssssssssssssssssssssssssssssssssssssssssssssssssssssssssssssssssssssssssssssssssssssssssssssssssssssssssssssssssssssssssssssssssssssssssssssssssssssssssssssssssssssssssssssccccscssscccssssssssssssssssccccccccccccccccccccccccccccccccsssssssssssssssssssssssssssssssssssssssssssssssssssssssssssssssssssc" />
      <path
         d="m 368.662,410.9 h 1.119 c 0.18,0 0,-0.18 0,0 v 2.64 c 0,0.18 0.18,0 0,0 h -2.238 c -0.18,0 0,0.18 0,0 v -2.64 c 0,-0.18 -0.18,0 0,0 z"
         stroke="#0000ff"
         stroke-width="0.36"
         id="path7599"
         style="stroke:#000000;stroke-width:0.2;stroke-dasharray:none;stroke-opacity:1" />
    </g>
    <path
       d="m 136.30197,513.65266 c 0.18,0 0,0.18 0,0 v -2.82 c 0,-0.099 0.081,-0.18 0.18,-0.18 h 6 c 0.099,0 0.18,0.081 0.18,0.18 v 2.82 c 0,0.18 -0.18,0 0,0 h 5.64 c 0.18,0 0,0.18 0,0 v -2.82 c 0,-0.099 0.081,-0.18 0.18,-0.18 h 6 c 0.099,0 0.18,0.081 0.18,0.18 v 2.82 c 0,0.18 -0.18,0 0,0 h 5.64 c 0.18,0 0,0.18 0,0 v -2.82 c 0,-0.099 0.081,-0.18 0.18,-0.18 h 6 c 0.099,0 0.18,0.081 0.18,0.18 v 2.82 c 0,0.18 -0.18,0 0,0 h 5.64 c 0.18,0 0,0.18 0,0 v -2.82 c 0,-0.099 0.081,-0.18 0.18,-0.18 h 6 c 0.099,0 0.18,0.081 0.18,0.18 v 2.82 c 0,0.18 -0.18,0 0,0 h 5.64 c 0.18,0 0,0.18 0,0 v -2.82 c 0,-0.099 0.081,-0.18 0.18,-0.18 h 6 c 0.099,0 0.18,0.081 0.18,0.18 v 2.82 c 0,0.18 -0.18,0 0,0 h 5.64 c 0.18,0 0,0.18 0,0 v -2.82 c 0,-0.099 0.081,-0.18 0.18,-0.18 h 6 c 0.099,0 0.18,0.081 0.18,0.18 v 2.82 c 0,0.18 -0.18,10e-5 0,10e-5 l 5.64,-10e-5 c 0.18,0 0,0.18 0,0 v -2.82 c 0,-0.099 0.081,-0.18 0.18,-0.18 h 6 c 0.099,0 0.18,0.081 0.18,0.18 v 2.82 c 0,0.18 -0.18,0 0,0 h 5.64 c 0.18,0 0,0.18 0,0 v -2.82 c 0,-0.099 0.081,-0.18 0.18,-0.18 h 6 c 0.099,0 0.18,0.081 0.18,0.18 v 2.82 c 0,0.18 -0.18,0 0,0"
       style="fill:none;stroke:#000000;stroke-width:0.2;stroke-linecap:round;stroke-linejoin:round;stroke-dasharray:none"
       id="path7605"
       sodipodi:nodetypes="cssssssssssssssssssssssssssssssssssssssssssssssssssssssssssssssc" />
  </g>
  <g
     id="g3147"
     style="fill:none;stroke-width:0.2;stroke-linecap:round;stroke-linejoin:round;stroke-dasharray:none"
     transform="rotate(-90,1.399583,200.35174)">
    <g
       id="p-4"
       style="fill:none;stroke-width:0.2;stroke-linecap:round;stroke-linejoin:round;stroke-dasharray:none"
       transform="translate(121.37287,12.526995)" />
  </g>
  <g
     id="g1934"
     transform="translate(10.385966,38.100411)">
    <g
       id="g1793"
       transform="translate(-15.03875,1.6709722)">
      <g
         id="g1863"
         transform="rotate(90,103.96407,120.19462)"
         style="stroke-width:0.2;stroke-dasharray:none">
        <path
           style="fill:#000000;stroke:#000000;stroke-width:0.2;stroke-dasharray:none"
           d="m 16.752818,108.61655 c 156.345882,0 156.345882,0 156.345882,0"
           id="path4516" />
        <path
           d="m 13.4,213.36 h 150 3 c 0.099,0 0.18,-0.081 0.18,-0.18 v -3 -190.304 c 0,-0.099 -0.081,-0.18 -0.18,-0.18 h -2.82 c -0.18,0 0,0.18 0,0 v -5.439 c 0,-0.18 -0.18,0 0,0 h 2.82 c 0.099,0 0.18,-0.08 0.18,-0.18 v -2.598 c 0,-0.099 -0.081,-0.18 -0.18,-0.18 h -2.82 c -0.18,0 0,0.18 0,0 V 10.18 c 0,-0.099 -0.081,-0.18 -0.18,-0.18 h -150 c -0.099,0 -0.18,0.081 -0.18,0.18 v 1.119 c 0,0.18 0.18,0 0,0 H 10.4 c -0.099,0 -0.18,0.081 -0.18,0.18 v 2.598 c 0,0.1 0.081,0.18 0.18,0.18 h 2.82 c 0.18,0 0,-0.18 0,0 v 5.439 c 0,0.18 0.18,0 0,0 H 10.4 c -0.099,0 -0.18,0.081 -0.18,0.18 v 190.304 3 c 0,0.099 0.081,0.18 0.18,0.18 h 3"
           stroke="#000000"
           stroke-width="0.36"
           id="path28"
           style="fill:none;stroke-width:0.2;stroke-linecap:round;stroke-linejoin:round;stroke-dasharray:none"
           transform="translate(6.54464,-3.063449)" />
        <path
           d="m 287.87291,129.86509 c 0,0.18 0.18,0 0,0 h -2.82 c -0.099,0 -0.18,0.081 -0.18,0.18 v 6 c 0,0.099 0.081,0.18 0.18,0.18 h 2.82 c 0.18,0 0,-0.18 0,0 v 5.64 c 0,0.18 0.18,0 0,0 h -2.82 c -0.099,0 -0.18,0.081 -0.18,0.18 v 6 c 0,0.099 0.081,0.18 0.18,0.18 h 2.82 c 0.18,0 0,-0.18 0,0 v 5.64 c 0,0.18 0.18,0 0,0 h -2.82 c -0.099,0 -0.18,0.081 -0.18,0.18 v 6 c 0,0.099 0.081,0.18 0.18,0.18 h 2.82 c 0.18,0 0,-0.18 0,0 v 5.64 c 0,0.18 0.18,0 0,0 h -2.82 c -0.099,0 -0.18,0.081 -0.18,0.18 v 6 c 0,0.099 0.081,0.18 0.18,0.18 h 2.82 c 0.18,0 0,-0.18 0,0 v 5.64 c 0,0.18 0.18,0 0,0 h -2.82 c -0.099,0 -0.18,0.081 -0.18,0.18 v 6 c 0,0.099 0.081,0.18 0.18,0.18 h 2.82 c 0.18,0 0,-0.18 0,0 v 5.64 c 0,0.18 0.18,0 0,0 h -2.82 c -0.099,0 -0.18,0.081 -0.18,0.18 v 6 c 0,0.099 0.081,0.18 0.18,0.18 h 2.82 c 0.18,0 0,-0.18 0,0 v 5.64 c 0,0.18 0.18,0 0,0 h -2.82 c -0.099,0 -0.18,0.081 -0.18,0.18 v 6 c 0,0.099 0.081,0.18 0.18,0.18 h 2.82 c 0.18,0 0,-0.18 0,0 v 5.64 c 0,0.18 0.18,0 0,0 h -2.82 c -0.099,0 -0.18,0.081 -0.18,0.18 v 6 c 0,0.099 0.081,0.18 0.18,0.18 h 2.82 c 0.18,0 0,-0.18 0,0"
           style="fill:none;stroke:#000000;stroke-width:0.2;stroke-linecap:round;stroke-linejoin:round;stroke-dasharray:none"
           id="path4938"
           transform="translate(-114.82823,-15.590444)" />
        <path
           d="m 131.67283,220.2251 c 0,-0.18 -0.18,0 0,0 h 2.82 c 0.099,0 0.18,-0.081 0.18,-0.18 v -6 c 0,-0.099 -0.081,-0.18 -0.18,-0.18 h -2.82 c -0.18,0 0,0.18 0,0 v -5.64 c 0,-0.18 -0.18,0 0,0 h 2.82 c 0.099,0 0.18,-0.081 0.18,-0.18 v -6 c 0,-0.099 -0.081,-0.18 -0.18,-0.18 h -2.82 c -0.18,0 0,0.18 0,0 v -5.64 c 0,-0.18 -0.18,0 0,0 h 2.82 c 0.099,0 0.18,-0.081 0.18,-0.18 v -6 c 0,-0.099 -0.0811,-0.1765 -0.18,-0.18 -0.62893,-0.0222 -1.87982,-1e-5 -2.82,0 -0.18,0 0,0.18 0,0 v -5.64 c 0,-0.18 -0.18,0 0,0 h 2.82 c 0.099,0 0.18,-0.081 0.18,-0.18 v -6 c 0,-0.099 -0.081,-0.18 -0.18,-0.18 h -2.82 c -0.18,0 0,0.18 0,0 v -5.64 c 0,-0.18 -0.18,0 0,0 h 2.82 c 0.099,0 0.18,-0.081 0.18,-0.18 v -6 c 0,-0.099 -0.081,-0.18 -0.18,-0.18 h -2.82 c -0.18,0 0,0.18 0,0 v -5.64 c 0,-0.18 -0.18,0 0,0 h 2.82 c 0.099,0 0.18,-0.081 0.18,-0.18 v -6 c 0,-0.099 -0.081,-0.18 -0.18,-0.18 h -2.82 c -0.18,0 0,0.18 0,0 v -5.64 c 0,-0.18 -0.18,0 0,0 h 2.82 c 0.099,0 0.18,-0.081 0.18,-0.18 v -6 c 0,-0.099 -0.081,-0.18 -0.18,-0.18 h -2.82 c -0.18,0 0,0.18 0,0 v -5.64 c 0,-0.18 -0.18,0 0,0 h 2.82 c 0.099,0 0.18,-0.081 0.18,-0.18 v -6 c 0,-0.099 -0.081,-0.18 -0.18,-0.18 h -2.82 c -0.18,0 0,0.18 0,0"
           style="fill:none;stroke:#000000;stroke-width:0.2;stroke-linecap:round;stroke-linejoin:round;stroke-dasharray:none"
           id="path4961"
           sodipodi:nodetypes="cssssssssssssssssssssssssssssssssssssssssssssssssssssssssssssssc"
           transform="translate(-114.82823,-15.590444)" />
        <rect
           style="fill:none;stroke:#000000;stroke-width:0.195038;stroke-linecap:round;stroke-linejoin:round;stroke-dasharray:none"
           id="rect6611"
           width="6.3149624"
           height="12.414962"
           x="91.787155"
           y="114.23"
           ry="0.00037623796" />
        <path
           d="m 164.12464,210.21659 c -0.18,0 0,0.18 0,0 v -2.82 c 0,-0.099 -0.081,-0.18 -0.18,-0.18 h -6 c -0.099,0 -0.18,0.081 -0.18,0.18 v 2.82 c 0,0.18 0.18,0 0,0 h -5.64 c -0.18,0 0,0.18 0,0 v -2.82 c 0,-0.099 -0.081,-0.18 -0.18,-0.18 h -6 c -0.099,0 -0.18,0.081 -0.18,0.18 v 2.82 c 0,0.18 0.18,0 0,0 h -5.64 c -0.18,0 0,0.18 0,0 v -2.82 c 0,-0.099 -0.081,-0.18 -0.18,-0.18 h -6 c -0.099,0 -0.18,0.081 -0.18,0.18 v 2.82 c 0,0.18 0.18,0 0,0 h -5.64 c -0.18,0 0,0.18 0,0 v -2.82 c 0,-0.099 -0.081,-0.18 -0.18,-0.18 h -6 c -0.099,0 -0.18,0.081 -0.18,0.18 v 2.82 c 0,0.18 0.18,0 0,0 h -5.64 c -0.18,0 0,0.18 0,0 v -2.82 c 0,-0.099 -0.081,-0.18 -0.18,-0.18 h -6 c -0.099,0 -0.18,0.081 -0.18,0.18 v 2.82 c 0,0.18 0.18,0 0,0 h -5.64 c -0.18,0 0,0.18 0,0 v -2.82 c 0,-0.099 -0.081,-0.18 -0.18,-0.18 h -6.000001 c -0.099,0 -0.18,0.081 -0.18,0.18 v 2.82 c 0,0.18 0.18,0 0,0 h -5.64 c -0.18,0 0,0.18 0,0 v -2.82 c 0,-0.099 -0.081,-0.18 -0.18,-0.18 h -6 c -0.099,0 -0.18,0.081 -0.18,0.18 v 2.82 c 0,0.18 0.18,0 0,0 h -5.64 c -0.18,0 0,0.18 0,0 v -2.82 c 0,-0.099 -0.081,-0.18 -0.18,-0.18 h -6 c -0.099,0 -0.18,0.081 -0.18,0.18 v 2.82 c 0,0.18 0.18,0 0,0 h -5.64 c -0.18,0 0,0.18 0,0 v -2.82 c 0,-0.099 -0.081,-0.18 -0.18,-0.18 h -6 c -0.099,0 -0.18,0.081 -0.18,0.18 v 2.82 c 0,0.18 0.18,0 0,0 h -5.64 c -0.18,0 0,0.18 0,0 v -2.82 c 0,-0.099 -0.081,-0.18 -0.18,-0.18 h -6 c -0.099,0 -0.18,0.081 -0.18,0.18 v 2.82 c 0,0.18 0.18,0 0,0 h -5.64 c -0.18,0 0,0.18 0,0 v -2.82 c 0,-0.099 -0.081,-0.18 -0.18,-0.18 h -6 c -0.099,0 -0.18,0.081 -0.18,0.18 v 2.82 c 0,0.18 0.18,0 0,0 h -5.64 c -0.18,0 0,0.18 0,0 v -2.82 c 0,-0.099 -0.081,-0.18 -0.18,-0.18 h -6 c -0.099,0 -0.18,0.081 -0.18,0.18 v 2.82 c 0,0.18 0.18,0 0,0"
           style="fill:none;stroke:#000000;stroke-width:0.2;stroke-dasharray:none"
           id="path5007" />
        <path
           style="fill:none;stroke:#000000;stroke-width:0.2;stroke-dasharray:none"
           d="m 94.94464,108.61552 c 0,101.67826 0,101.67826 0,101.67826"
           id="path6557" />
        <rect
           style="fill:none;stroke:#000000;stroke-width:0.2;stroke-dasharray:none"
           id="rect1795"
           width="61.199356"
           height="38.223492"
           x="64.344963"
           y="147.67216"
           ry="0.0010205569" />
      </g>
    </g>
  </g>
  <rect
     style="fill:none;stroke:#000000;stroke-width:0.0805474;stroke-linejoin:bevel;stroke-dasharray:none;stroke-opacity:1;paint-order:stroke fill markers"
     id="rect7677"
     width="10.229261"
     height="88.103127"
     x="503.32065"
     y="41.296837"
     ry="0.00035848009" />
  <path
     style="fill:none;stroke:#000000;stroke-width:0.2;stroke-linejoin:bevel;stroke-dasharray:none;stroke-opacity:1;paint-order:stroke fill markers"
     id="path7731"
     sodipodi:type="arc"
     sodipodi:cx="508.46588"
     sodipodi:cy="46.824863"
     sodipodi:rx="4.1774306"
     sodipodi:ry="4.1774306"
     sodipodi:start="0"
     sodipodi:end="6.2599548"
     sodipodi:arc-type="slice"
     d="m 512.64331,46.824863 a 4.1774306,4.1774306 0 0 1 -4.15317,4.177361 4.1774306,4.1774306 0 0 1 -4.20141,-4.12884 4.1774306,4.1774306 0 0 1 4.10437,-4.225317 4.1774306,4.1774306 0 0 1 4.24908,4.079761 l -4.1763,0.09703 z" />
  <text
     xml:space="preserve"
     transform="scale(0.26458333)"
     id="text4017"
     style="white-space:pre;shape-inside:url(#rect4019);display:inline;fill:none;stroke:#000000;stroke-width:0.755906;stroke-linejoin:bevel;stroke-dasharray:none;paint-order:stroke fill markers"><tspan
       x="241.13477"
       y="1635.7702"
       id="tspan2745">Battery</tspan></text>
  <text
     xml:space="preserve"
     transform="scale(0.26458333)"
     id="text4023"
     style="white-space:pre;shape-inside:url(#rect4025);display:inline;fill:none;stroke:#000000;stroke-width:0.755906;stroke-linejoin:bevel;stroke-dasharray:none;paint-order:stroke fill markers"><tspan
       x="548.22656"
       y="1773.3601"
       id="tspan2747">Switch</tspan></text>
  <g
     id="g1922">
    <path
       style="fill:none;stroke:#000000;stroke-width:0.2;stroke-linejoin:bevel;paint-order:stroke fill markers"
       d="m 360.14515,514.6081 c 64.83023,8.14792 40.64483,-20.23763 40.64483,-20.23763 l 7.27962,7.49375 2.49842,-2.29433 -7.75475,-7.16578 c 1.20357,-1.07029 22.83432,4.02819 17.81233,24.30434 -1.20147,4.85095 -61.70225,11.35495 -61.70225,11.35495 z"
       id="path1813"
       sodipodi:nodetypes="cccccscc" />
    <path
       style="fill:none;stroke:#000000;stroke-width:0.2;stroke-linejoin:bevel;paint-order:stroke fill markers"
       d="M 355.12259,385.01074 V 485.58993"
       id="path1911"
       transform="translate(-2.5064584,0.41774306)" />
    <g
       id="p-5-6"
       style="fill:none;stroke-width:0.2;stroke-linecap:round;stroke-linejoin:round;stroke-dasharray:none"
       transform="matrix(-1,0,0,1,814.96782,193.44427)">
      <path
         d="m 362.35169,292.31156 h 200.04976 c 0,0 0.13024,-0.0312 0.13024,-0.18 v -10.82 c 0,-0.18 -0.18,0 0,0 h 2.82 c 0.099,0 0.18,-0.081 0.18,-0.18 v -6 c 0,-0.099 -0.081,-0.18 -0.18,-0.18 h -2.82 c -0.18,0 0,0.18 0,0 -0.75728,-0.84514 0,-65.64 0,-65.64 0,-0.18 -0.18,0 0,0 h 2.82 c 0.099,0 0.18,-0.081 0.18,-0.18 v -6 c 0,-0.099 -0.081,-0.18 -0.18,-0.18 h -2.82 c -0.18,0 0,0.18 0,0 v -10.82 c 0,-0.099 -0.081,-0.18 -0.18,-0.18 h -200 c -0.099,0 -0.18,0.081 -0.18,0.18 v 10.82 c 0,0.18 0.18,0 0,0 h -2.82 c -0.099,0 -0.18,0.081 -0.18,0.18 v 6 c 0,0.099 0.081,0.18 0.18,0.18 h 2.82 c 0.18,0 0,-0.18 0,0 v 5.64 c 0,0.18 0.18,0 0,0 h -2.82 c -0.099,0 -0.18,0.081 -0.18,0.18 v 6 c 0,0.099 0.081,0.18 0.18,0.18 h 2.82 c 0.18,0 0,-0.18 0,0 v 5.64 c 0,0.18 0.18,0 0,0 h -2.82 c -0.099,0 -0.18,0.081 -0.18,0.18 v 6 c 0,0.099 0.081,0.18 0.18,0.18 h 2.82 c 0.18,0 0,-0.18 0,0 v 5.64 c 0,0.18 0.18,0 0,0 h -2.82 c -0.099,0 -0.18,0.081 -0.18,0.18 v 6 c 0,0.099 0.081,0.18 0.18,0.18 h 2.82 c 0.18,0 0,-0.18 0,0 v 5.64 c 0,0.18 0.18,0 0,0 h -2.82 c -0.099,0 -0.18,0.081 -0.18,0.18 v 6 c 0,0.099 0.081,0.18 0.18,0.18 h 2.82 c 0.18,0 0,-0.18 0,0 v 5.64 c 0,0.18 0.18,0 0,0 h -2.82 c -0.099,0 -0.18,0.081 -0.18,0.18 v 6 c 0,0.099 0.081,0.18 0.18,0.18 h 2.82 c 0.18,0 0,-0.18 0,0 v 5.64 c 0,0.18 0.18,0 0,0 h -2.82 c -0.099,0 -0.18,0.081 -0.18,0.18 v 6 c 0,0.099 0.081,0.18 0.18,0.18 h 2.82 c 0.18,0 0,-0.18 0,0 v 10.82 c 0,0.12392 0.1743,0.18622 0.18,0.18 z"
         stroke="#000000"
         stroke-width="0.36"
         id="path23-1"
         sodipodi:nodetypes="ccssssssssccssssssssssssssssssssssssssssssssssssssssssssssssssssssssssssssssssssc"
         style="stroke-width:0.2;stroke-dasharray:none" />
    </g>
    <rect
       style="fill:none;stroke:#000000;stroke-width:0.198223;stroke-linejoin:bevel;stroke-dasharray:none;paint-order:stroke fill markers"
       id="rect1059"
       width="22.301777"
       height="11.601777"
       x="341.07346"
       y="406.37479"
       ry="0.00021993689" />
    <text
       xml:space="preserve"
       transform="matrix(0.26458333,0,0,0.26458333,57.795508,2.251773)"
       id="text4112"
       style="white-space:pre;shape-inside:url(#rect4114);display:inline;fill:none;stroke:#000000;stroke-width:0.755906;stroke-linejoin:bevel;stroke-dasharray:none;paint-order:stroke fill markers"><tspan
         x="1074.4688"
         y="1547.8269"
         id="tspan2749">Servo</tspan></text>
  </g>
  <g
     id="g957"
     transform="translate(7.430472,9.553464)">
    <g
       id="g1845"
       transform="translate(4.1774306,-1.2532292)">
      <g
         id="g10668"
         transform="matrix(-1,0,0,1,400.43083,99.854757)"
         style="fill:none;stroke-width:0.2;stroke-linecap:round;stroke-linejoin:round;stroke-dasharray:none">
        <g
           id="g10647"
           transform="matrix(-1,0,0,1,382.85084,-56.706978)">
          <g
             id="g5263"
             transform="translate(-239.95358,194.87237)"
             style="stroke-width:0.2;stroke-dasharray:none">
            <g
               id="g5284"
               transform="translate(-7.1016321,1.2532292)"
               style="stroke-width:0.2;stroke-dasharray:none">
              <g
                 id="g5293"
                 transform="translate(254.6144,-194.4594)"
                 style="stroke-width:0.2;stroke-dasharray:none">
                <path
                   d="m 20.929498,306.23123 h 6 c 0.099,0 0.18,-0.081 0.18,-0.18 v -2.82 c 0,-0.18 -0.18,0 0,0 h 5.64 c 0.18,0 0,-0.18 0,0 v 2.82 c 0,0.099 0.081,0.18 0.18,0.18 h 6 c 0.099,0 0.18,-0.081 0.18,-0.18 v -2.82 c 0,-0.18 -0.18,0 0,0 h 5.64 c 0.18,0 0,-0.18 0,0 v 2.82 c 0,0.099 0.081,0.18 0.18,0.18 h 6 c 0.099,0 0.18,-0.081 0.18,-0.18 v -2.82 c 0,-0.18 -0.18,0 0,0 h 5.64 c 0.18,0 0,-0.18 0,0 v 2.82 c 0,0.099 0.081,0.18 0.18,0.18 h 6 c 0.099,0 0.18,-0.081 0.18,-0.18 v -2.82 c 0,-0.18 -0.18,0 0,0 h 5.64 c 0.18,0 0,-0.18 0,0 v 2.82 c 0,0.099 0.081,0.18 0.18,0.18 h 6 c 0.099,0 0.18,-0.081 0.18,-0.18 v -2.82 c 0,-0.18 -0.18,0 0,0 h 5.64 c 0.18,0 0,-0.18 0,0 v 2.82 c 0,0.099 0.081,0.18 0.18,0.18 h 6 c 0.099,0 0.18,-0.081 0.18,-0.18 v -2.82 c 0,-0.18 -0.18,0 0,0 h 5.64 c 0.18,0 0,-0.18 0,0 v 2.82 c 0,0.099 0.081,0.18 0.18,0.18 h 6 c 0.099,0 0.18,-0.081 0.18,-0.18 v -2.82 c 0,-0.18 -0.18,0 0,0 h 5.640002 c 0.18,0 0,-0.18 0,0 v 2.82 c 0,0.099 0.081,0.18 0.18,0.18 h 6 c 0.099,0 0.18,-0.081 0.18,-0.18 v -2.82 c 0,-0.18 -0.18,0 0,0 h 5.64 c 0.18,0 0,-0.18 0,0 v 2.82 c 0,0.099 0.081,0.18 0.18,0.18 h 6 c 0.099,0 0.18,-0.081 0.18,-0.18 v -2.82 c 0,-0.18 -0.18,0 0,0 h 5.64 c 0.18,0 0,-0.18 0,0 v 2.82 c 0,0.099 0.081,0.18 0.18,0.18 h 6 c 0.099,0 0.18,-0.081 0.18,-0.18 v -2.82 c 0,-0.18 -0.18,0 0,0 h 5.64 c 0.18,0 0,-0.18 0,0 v 2.82 c 0,0.099 0.081,0.18 0.18,0.18 h 6 c 0.099,0 0.18,-0.081 0.18,-0.18 v -2.82 c 0,-0.18 -0.18,0 0,0 h 5.64 c 0.18,0 0,-0.18 0,0 v 2.82 c 0,0.099 0.081,0.18 0.18,0.18 h 6 c 0.099,0 0.18,-0.081 0.18,-0.18 v -2.82 c 0,-0.18 -0.18,0 0,0 h 5.64 c 0.18,0 0,-0.18 0,0 v 2.82 c 0,0.099 0.081,0.18 0.18,0.18 h 6 3 c 0.099,0 0.18,-0.081 0.18,-0.18 v -6.5 c 0,-0.099 -0.081,-0.18 -0.18,-0.18 h -2.82 c -0.18,0 0,0.18 0,0 v -5.64 c 0,-0.18 -0.18,0 0,0 h 2.82 c 0.099,0 0.18,-0.081 0.18,-0.18 v -6 c 0,-0.099 -0.081,-0.18 -0.18,-0.18 h -2.82 c -0.18,0 0,0.18 0,0 v -5.64 c 0,-0.18 -0.18,0 0,0 h 2.82 c 0.099,0 0.18,-0.081 0.18,-0.18 v -6 c 0,-0.099 -0.081,-0.18 -0.18,-0.18 h -2.82 c -0.18,0 0,0.18 0,0 v -5.64 c 0,-0.18 -0.18,0 0,0 h 2.82 c 0.099,0 0.18,-0.081 0.18,-0.18 v -6 c 0,-0.099 -0.081,-0.18 -0.18,-0.18 h -2.82 c -0.18,0 0,0.18 0,0 v -5.64 c 0,-0.18 -0.18,0 0,0 h 2.82 c 0.099,0 0.18,-0.081 0.18,-0.18 v -6 c 0,-0.099 -0.081,-0.18 -0.18,-0.18 h -2.82 c -0.18,0 0,0.18 0,0 v -5.64 c 0,-0.18 -0.18,0 0,0 h 2.82 c 0.099,0 0.18,-0.081 0.18,-0.18 v -6 c 0,-0.099 -0.081,-0.18 -0.18,-0.18 h -2.82 c -0.18,0 0,0.18 0,0 v -5.64 c 0,-0.18 -0.18,0 0,0 h 2.82 c 0.099,0 0.18,-0.081 0.18,-0.18 v -6 c 0,-0.099 -0.081,-0.18 -0.18,-0.18 h -2.82 c -0.18,0 0,0.18 0,0 v -5.64 c 0,-0.18 -0.18,0 0,0 h 2.82 c 0.099,0 0.18,-0.081 0.18,-0.18 v -6 c 0,-0.099 -0.081,-0.18 -0.18,-0.18 h -2.82 c -0.18,0 0,0.18 0,0 v -5.64 c 0,-0.18 -0.18,0 0,0 h 2.82 c 0.099,0 0.18,-0.081 0.18,-0.18 v -6.5 c 0,-0.099 -0.081,-0.18 -0.18,-0.18 h -3 -150.000002 -3 c -0.099,0 -0.18,0.081 -0.18,0.18 v 6.5 c 0,0.099 0.081,0.18 0.18,0.18 h 2.82 c 0.18,0 0,-0.18 0,0 v 5.64 c 0,0.18 0.18,0 0,0 h -2.82 c -0.099,0 -0.18,0.081 -0.18,0.18 v 6 c 0,0.099 0.081,0.18 0.18,0.18 h 2.82 c 0.18,0 0,-0.18 0,0 v 5.64 c 0,0.18 0.18,0 0,0 h -2.82 c -0.099,0 -0.18,0.081 -0.18,0.18 v 6 c 0,0.099 0.081,0.18 0.18,0.18 h 2.82 c 0.18,0 0,-0.18 0,0 v 5.64 c 0,0.18 0.18,0 0,0 h -2.82 c -0.099,0 -0.18,0.081 -0.18,0.18 v 6 c 0,0.099 0.081,0.18 0.18,0.18 h 2.82 c 0.18,0 0,-0.18 0,0 v 5.64 c 0,0.18 0.18,0 0,0 h -2.82 c -0.099,0 -0.18,0.081 -0.18,0.18 v 6 c 0,0.099 0.081,0.18 0.18,0.18 h 2.82 c 0.18,0 0,-0.18 0,0 v 5.64 c 0,0.18 0.18,0 0,0 h -2.82 c -0.099,0 -0.18,0.081 -0.18,0.18 v 6 c 0,0.099 0.081,0.18 0.18,0.18 h 2.82 c 0.18,0 0,-0.18 0,0 v 5.64 c 0,0.18 0.18,0 0,0 h -2.82 c -0.099,0 -0.18,0.081 -0.18,0.18 v 6 c 0,0.099 0.081,0.18 0.18,0.18 h 2.82 c 0.18,0 0,-0.18 0,0 v 5.64 c 0,0.18 0.18,0 0,0 h -2.82 c -0.099,0 -0.18,0.081 -0.18,0.18 v 6 c 0,0.099 0.081,0.18 0.18,0.18 h 2.82 c 0.18,0 0,-0.18 0,0 v 5.64 c 0,0.18 0.18,0 0,0 h -2.82 c -0.099,0 -0.18,0.081 -0.18,0.18 v 6.5 c 0,0.099 0.081,0.18 0.18,0.18 h 3"
                   stroke="#000000"
                   stroke-width="0.36"
                   id="path13"
                   style="fill:none;stroke-width:0.2;stroke-linecap:round;stroke-linejoin:round;stroke-dasharray:none" />
                <rect
                   style="fill:none;stroke:#000000;stroke-width:0.196488;stroke-linecap:round;stroke-linejoin:round;stroke-dasharray:none;stroke-opacity:1"
                   id="rect11019"
                   width="71.103508"
                   height="26.103512"
                   x="60.377747"
                   y="241.49948"
                   ry="0.00065922685" />
                <path
                   d="m 165.10122,202.83961 c -0.18,0 0,0.18 0,0 v -2.82 c 0,-0.099 -0.081,-0.18 -0.18,-0.18 h -6 c -0.099,0 -0.18,0.081 -0.18,0.18 v 2.82 c 0,0.18 0.18,0 0,0 h -5.64 c -0.18,0 0,0.18 0,0 v -2.82 c 0,-0.099 -0.081,-0.18 -0.18,-0.18 h -6 c -0.099,0 -0.18,0.081 -0.18,0.18 v 2.82 c 0,0.18 0.18,0 0,0 h -5.64 c -0.18,0 0,0.18 0,0 v -2.82 c 0,-0.099 -0.081,-0.18 -0.18,-0.18 h -6 c -0.099,0 -0.18,0.081 -0.18,0.18 v 2.82 c 0,0.18 0.18,0 0,0 h -5.64 c -0.18,0 0,0.18 0,0 v -2.82 c 0,-0.099 -0.081,-0.18 -0.18,-0.18 h -6 c -0.099,0 -0.18,0.081 -0.18,0.18 v 2.82 c 0,0.18 0.18,0 0,0 h -5.64 c -0.18,0 0,0.18 0,0 v -2.82 c 0,-0.099 -0.081,-0.18 -0.18,-0.18 h -5.99999 c -0.099,0 -0.18,0.081 -0.18,0.18 v 2.82 c 0,0.18 0.18,0 0,0 h -5.64 c -0.18,0 0,0.18 0,0 v -2.82 c 0,-0.099 -0.081,-0.18 -0.18,-0.18 h -6.000001 c -0.099,0 -0.18,0.081 -0.18,0.18 v 2.82 c 0,0.18 0.18,0 0,0 h -5.64 c -0.18,0 0,0.18 0,0 v -2.82 c 0,-0.099 -0.081,-0.18 -0.18,-0.18 h -6 c -0.099,0 -0.18,0.081 -0.18,0.18 v 2.82 c 0,0.18 0.18,0 0,0 h -5.64 c -0.18,0 0,0.18 0,0 v -2.82 c 0,-0.099 -0.081,-0.18 -0.18,-0.18 h -6 c -0.099,0 -0.18,0.081 -0.18,0.18 v 2.82 c 0,0.18 0.18,0 0,0 h -5.64 c -0.18,0 0,0.18 0,0 v -2.82 c 0,-0.099 -0.081,-0.18 -0.18,-0.18 h -6 c -0.099,0 -0.18,0.081 -0.18,0.18 v 2.82 c 0,0.18 0.18,0 0,0 h -5.64 c -0.18,0 0,0.18 0,0 v -2.82 c 0,-0.099 -0.081,-0.18 -0.18,-0.18 h -6 c -0.099,0 -0.18,0.081 -0.18,0.18 v 2.82 c 0,0.18 0.18,0 0,0 h -5.64 c -0.18,0 0,0.18 0,0 v -2.82 c 0,-0.099 -0.081,-0.18 -0.18,-0.18 h -6 c -0.099,0 -0.18,0.081 -0.18,0.18 v 2.82 c 0,0.18 0.18,0 0,0 h -5.64 c -0.18,0 0,0.18 0,0 v -2.82 c 0,-0.099 -0.081,-0.18 -0.18,-0.18 h -6 c -0.099,0 -0.18,0.081 -0.18,0.18 v 2.82 c 0,0.18 0.18,0 0,0"
                   style="fill:none;stroke:#000000;stroke-width:0.2;stroke-dasharray:none"
                   id="path5007-2" />
                <path
                   d="m 114.31999,289.03578 v 3.1911 c 0,0.20368 0.18964,0 0,0 h -2.7812 c -0.18963,0 0,0.20368 0,0 v -6.3822 c 0,-0.20368 -0.18963,0 0,0 h 2.7812 c 0.18964,0 0,-0.20368 0,0 z"
                   stroke="#0000ff"
                   stroke-width="0.393064"
                   id="path4920-5"
                   style="fill:none;stroke:#000000;stroke-width:0.2;stroke-linecap:round;stroke-linejoin:round;stroke-dasharray:none;stroke-opacity:1" />
                <path
                   d="m 114.31999,217.12089 v 3.19111 c 0,0.20368 0.18964,0 0,0 h -2.7812 c -0.18963,0 0,0.20368 0,0 v -6.38222 c 0,-0.20368 -0.18963,0 0,0 h 2.7812 c 0.18964,0 0,-0.20368 0,0 z"
                   stroke="#0000ff"
                   stroke-width="0.393064"
                   id="path4924-6"
                   style="fill:none;stroke:#000000;stroke-width:0.2;stroke-linecap:round;stroke-linejoin:round;stroke-dasharray:none;stroke-opacity:1" />
              </g>
            </g>
          </g>
        </g>
        <path
           style="fill:none;stroke:#000000;stroke-width:0.0939586;stroke-linejoin:bevel;stroke-dasharray:none;stroke-opacity:1;paint-order:stroke fill markers"
           id="path8459"
           transform="scale(-1,1)"
           sodipodi:type="arc"
           sodipodi:cx="-241.36226"
           sodipodi:cy="219.06047"
           sodipodi:rx="1.3530198"
           sodipodi:ry="1.3530188"
           sodipodi:start="0"
           sodipodi:end="6.2599548"
           sodipodi:arc-type="slice"
           d="m -240.00924,219.06047 a 1.3530198,1.3530188 0 0 1 -1.34516,1.353 1.3530198,1.3530188 0 0 1 -1.36079,-1.33728 1.3530198,1.3530188 0 0 1 1.32936,-1.36853 1.3530198,1.3530188 0 0 1 1.37623,1.32138 l -1.35266,0.0314 z" />
        <path
           style="fill:none;stroke:#000000;stroke-width:0.0939586;stroke-linejoin:bevel;stroke-dasharray:none;stroke-opacity:1;paint-order:stroke fill markers"
           id="path1899"
           transform="scale(-1,1)"
           sodipodi:type="arc"
           sodipodi:cx="-317.26227"
           sodipodi:cy="219.06047"
           sodipodi:rx="1.3530198"
           sodipodi:ry="1.3530188"
           sodipodi:start="0"
           sodipodi:end="6.2599548"
           sodipodi:arc-type="slice"
           d="m -315.90925,219.06047 a 1.3530198,1.3530188 0 0 1 -1.34516,1.353 1.3530198,1.3530188 0 0 1 -1.36079,-1.33728 1.3530198,1.3530188 0 0 1 1.32936,-1.36853 1.3530198,1.3530188 0 0 1 1.37623,1.32138 l -1.35266,0.0314 z" />
        <path
           style="fill:none;stroke:#000000;stroke-width:0.0939586;stroke-linejoin:bevel;stroke-dasharray:none;stroke-opacity:1;paint-order:stroke fill markers"
           id="path1901"
           transform="scale(-1,1)"
           sodipodi:type="arc"
           sodipodi:cx="-239.86226"
           sodipodi:cy="183.06047"
           sodipodi:rx="1.3530198"
           sodipodi:ry="1.3530188"
           sodipodi:start="0"
           sodipodi:end="6.2599548"
           sodipodi:arc-type="slice"
           d="m -238.50924,183.06047 a 1.3530198,1.3530188 0 0 1 -1.34516,1.353 1.3530198,1.3530188 0 0 1 -1.36079,-1.33728 1.3530198,1.3530188 0 0 1 1.32936,-1.36853 1.3530198,1.3530188 0 0 1 1.37623,1.32138 l -1.35266,0.0314 z" />
        <path
           style="fill:none;stroke:#000000;stroke-width:0.0939586;stroke-linejoin:bevel;stroke-dasharray:none;stroke-opacity:1;paint-order:stroke fill markers"
           id="path1903"
           transform="scale(-1,1)"
           sodipodi:type="arc"
           sodipodi:cx="-318.86227"
           sodipodi:cy="183.06047"
           sodipodi:rx="1.3530198"
           sodipodi:ry="1.3530188"
           sodipodi:start="0"
           sodipodi:end="6.2599548"
           sodipodi:arc-type="slice"
           d="m -317.50925,183.06047 a 1.3530198,1.3530188 0 0 1 -1.34517,1.353 1.3530198,1.3530188 0 0 1 -1.36078,-1.33728 1.3530198,1.3530188 0 0 1 1.32935,-1.36853 1.3530198,1.3530188 0 0 1 1.37623,1.32138 l -1.35265,0.0314 z" />
      </g>
    </g>
    <text
       xml:space="preserve"
       transform="scale(0.26458333)"
       id="text4118"
       style="white-space:pre;shape-inside:url(#rect4120);display:inline;fill:none;stroke:#000000;stroke-width:0.755906;stroke-linejoin:bevel;stroke-dasharray:none;paint-order:stroke fill markers"><tspan
         x="355.31836"
         y="1109.53"
         id="tspan2751">Screen</tspan></text>
  </g>
  <path
     style="fill:none;stroke:#000000;stroke-width:0.303949;stroke-linejoin:bevel;stroke-dasharray:none;paint-order:stroke fill markers"
     id="path4226"
     sodipodi:type="arc"
     sodipodi:cx="124.99456"
     sodipodi:cy="450.00049"
     sodipodi:rx="4.8480196"
     sodipodi:ry="4.8480206"
     sodipodi:start="0"
     sodipodi:end="6.2599548"
     sodipodi:arc-type="slice"
     d="m 129.84258,450.00049 a 4.8480196,4.8480206 0 0 1 -4.81986,4.84794 4.8480196,4.8480206 0 0 1 -4.87585,-4.79163 4.8480196,4.8480206 0 0 1 4.76323,-4.9036 4.8480196,4.8480206 0 0 1 4.93117,4.73468 l -4.84671,0.11261 z" />
  <path
     style="fill:none;stroke:#000000;stroke-width:0.303949;stroke-linejoin:bevel;stroke-dasharray:none;paint-order:stroke fill markers"
     id="path4228"
     sodipodi:type="arc"
     sodipodi:cx="125.5575"
     sodipodi:cy="466.32581"
     sodipodi:rx="4.848022"
     sodipodi:ry="4.8480172"
     sodipodi:start="0"
     sodipodi:end="6.2599548"
     sodipodi:arc-type="slice"
     d="m 130.40552,466.32581 a 4.848022,4.8480172 0 0 1 -4.81986,4.84793 4.848022,4.8480172 0 0 1 -4.87585,-4.79162 4.848022,4.8480172 0 0 1 4.76323,-4.9036 4.848022,4.8480172 0 0 1 4.93118,4.73467 l -4.84672,0.11262 z" />
</svg>
